<svg xmlns="http://www.w3.org/2000/svg" width="167" height="49" viewBox="0 0 167 49" fill="none">
<g clip-path="url(#clip0_179_5158)">
<path d="M4.01498 8.94445C6.4007 8.94445 8.13179 7.25428 8.13179 4.90599C8.07361 2.51283 6.4007 0.845093 4.0659 0.845093C1.7311 0.845093 0 2.55022 0 4.91347C0 7.27672 1.68746 8.93697 4.01498 8.93697V8.94445Z" fill="url(#paint0_linear_179_5158)"/>
<path d="M49.1107 18.8836L59.1554 0.867554H50.7545L44.8703 11.4049L38.906 0.867554H13.9287V36.9071H21.2168V22.0919H31.3197L32.9562 18.719L31.2979 15.7351H21.2168V7.22439H34.0327L40.6734 18.9284L30.636 36.9071H39.066L44.9139 26.4146L50.8709 36.9071H59.3155L49.1107 18.8836Z" fill="url(#paint1_linear_179_5158)"/>
<path d="M7.75377 12.7959H0.378418V36.9145H7.75377V12.7959Z" fill="white"/>
<path d="M81.2671 33.9381H66.0727V19.6838H77.5722L78.4086 18.3975L77.354 16.7971H66.0727V3.83658H81.7763L79.8633 0.949829H62.7778V36.8248H79.3833L81.2671 33.9381Z" fill="white"/>
<path d="M95.0865 20.9776L84.9545 36.8248H81.2231L93.2463 18.39L81.7105 0.949829H85.5363L95.0865 16.0492L104.68 0.949829H108.506L97.0649 18.39L109.037 36.8248H105.255L95.0792 20.9776H95.0865Z" fill="white"/>
<path d="M109.91 36.8248V0.949829H122.653C124.915 0.949829 126.785 1.21906 128.254 1.75004C129.723 2.28103 130.887 3.01393 131.745 3.94128C132.604 4.86863 133.2 5.94556 133.542 7.15709C133.884 8.36863 134.051 9.64 134.051 10.9712C134.051 12.968 133.658 14.6058 132.865 15.9071C132.073 17.2009 131.047 18.2255 129.789 18.9733C128.53 19.7212 127.097 20.2447 125.497 20.5438C123.897 20.843 122.29 20.9926 120.675 20.9926H113.212V36.8398H109.917L109.91 36.8248ZM120.77 18.0909C122.319 18.0909 123.708 17.9936 124.937 17.7917C126.166 17.5898 127.207 17.2159 128.065 16.6699C128.923 16.124 129.585 15.3761 130.051 14.4263C130.516 13.4765 130.756 12.2426 130.756 10.7169C130.756 8.45838 130.036 6.74577 128.596 5.58658C127.156 4.42739 124.872 3.84406 121.737 3.84406H113.205V18.0983H120.77V18.0909Z" fill="white"/>
<path d="M134.48 18.9359C134.48 16.3109 134.829 13.8504 135.52 11.562C136.211 9.27351 137.244 7.26923 138.597 5.55662C139.957 3.84402 141.637 2.49039 143.637 1.49573C145.637 0.501068 147.95 0 150.569 0C153.187 0 155.668 0.49359 157.719 1.47329C159.77 2.45299 161.479 3.79915 162.854 5.51175C164.229 7.22436 165.261 9.23611 165.952 11.5395C166.643 13.8504 166.993 16.3184 166.993 18.9359C166.993 21.5534 166.643 23.9615 165.952 26.235C165.254 28.5086 164.229 30.5053 162.876 32.218C161.516 33.9306 159.821 35.2842 157.784 36.2789C155.748 37.2735 153.391 37.7746 150.707 37.7746C148.023 37.7746 145.667 37.2735 143.63 36.2789C141.593 35.2842 139.899 33.9306 138.539 32.218C137.178 30.5053 136.167 28.516 135.484 26.235C134.807 23.9615 134.465 21.5235 134.465 18.9359H134.48ZM150.765 34.8803C153.027 34.8803 154.969 34.4391 156.606 33.5566C158.235 32.6741 159.581 31.5075 160.628 30.0417C161.676 28.5833 162.454 26.8857 162.956 24.9562C163.458 23.0267 163.705 21.0224 163.705 18.9284C163.705 16.438 163.407 14.2019 162.81 12.2276C162.214 10.2532 161.348 8.56304 160.221 7.17201C159.086 5.77351 157.719 4.71154 156.104 3.98611C154.489 3.25321 152.678 2.88675 150.678 2.88675C148.445 2.88675 146.518 3.33547 144.888 4.23291C143.259 5.13034 141.913 6.31945 140.866 7.80021C139.819 9.28098 139.04 10.9786 138.539 12.9081C138.037 14.8376 137.789 16.8419 137.789 18.9359C137.789 21.0299 138.037 23.0865 138.539 25.016C139.04 26.9455 139.811 28.6357 140.866 30.1015C141.913 31.5673 143.259 32.7265 144.888 33.594C146.518 34.4615 148.481 34.8878 150.78 34.8878L150.765 34.8803Z" fill="white"/>
<path d="M63.0176 49V39.5245H64.5232V47.6688H68.4218V49H63.0176Z" fill="#51C2BD"/>
<path d="M90.5991 49L89.6754 46.3675H86.155L85.2531 49H83.6675L87.1151 39.4872H88.7517L92.1993 49H90.5991ZM89.2826 45.0363L88.4171 42.4562C88.3516 42.2842 88.2643 42.015 88.1552 41.641C88.0461 41.2671 87.9661 40.9979 87.9225 40.8259C87.8061 41.3568 87.6461 41.9402 87.4279 42.5684L86.5987 45.0363H89.2826Z" fill="#51C2BD"/>
<path d="M111.467 49H109.961V40.8557H107.248V39.5245H114.172V40.8557H111.459V49H111.467Z" fill="#51C2BD"/>
<path d="M136.168 49L135.244 46.3675H131.723L130.821 49H129.236L132.683 39.4872H134.32L137.768 49H136.168ZM134.851 45.0363L133.985 42.4562C133.92 42.2842 133.833 42.015 133.724 41.641C133.615 41.2671 133.534 40.9979 133.491 40.8259C133.374 41.3568 133.214 41.9402 132.996 42.5684L132.167 45.0363H134.851Z" fill="#51C2BD"/>
<path d="M157.836 49L155.166 41.0876H155.115C155.188 42.2617 155.224 43.3611 155.224 44.3931V49H153.857V39.5245H155.981L158.541 47.063H158.577L161.21 39.5245H163.342V49H161.894V44.3183C161.894 43.8472 161.909 43.2339 161.931 42.4786C161.952 41.7233 161.974 41.2671 161.989 41.1025H161.938L159.174 49H157.843H157.836Z" fill="#51C2BD"/>
</g>
<defs>
<linearGradient id="paint0_linear_179_5158" x1="4.0659" y1="0.837614" x2="4.0659" y2="8.94445" gradientUnits="userSpaceOnUse">
<stop stop-color="#51C2BD"/>
<stop offset="0.22" stop-color="#43ACA7"/>
<stop offset="0.67" stop-color="#227671"/>
<stop offset="1" stop-color="#074A46"/>
</linearGradient>
<linearGradient id="paint1_linear_179_5158" x1="36.6221" y1="0.867554" x2="36.6221" y2="36.9071" gradientUnits="userSpaceOnUse">
<stop stop-color="#51C2BD"/>
<stop offset="0.22" stop-color="#43ACA7"/>
<stop offset="0.67" stop-color="#227671"/>
<stop offset="1" stop-color="#074A46"/>
</linearGradient>
<clipPath id="clip0_179_5158">
<rect width="167" height="49" fill="white"/>
</clipPath>
</defs>
</svg>