<svg xmlns="http://www.w3.org/2000/svg" width="51" height="54" viewBox="0 0 51 54" fill="none">
<g clip-path="url(#clip0_834_269)">
<path d="M3.24427 6.93879C5.17294 6.93879 6.5691 5.59398 6.5691 3.72845C6.51987 1.8267 5.16847 0.5 3.28455 0.5C1.40063 0.5 0 1.86292 0 3.74203C0 5.62114 1.36483 6.93879 3.24427 6.93879Z" fill="url(#paint0_linear_834_269)"/>
<path d="M38.7614 14.8401L46.8743 0.522644H40.0904L35.3426 8.89488L30.5232 0.522644H10.355V29.1666H16.2394V17.3894H24.3971L25.7217 14.7133L24.3792 12.3407H16.2394V5.57587H26.5898L31.9507 14.8763L23.8467 29.1666H30.6485L35.3739 20.8216L40.1844 29.1666H47.0086L38.7614 14.8401Z" fill="url(#paint1_linear_834_269)"/>
<path d="M6.26464 9.99969H0.308594V29.1666H6.26464V9.99969Z" fill="white"/>
<path d="M10.7083 46.142H1.7944V39.5538H7.19555L7.59382 38.9561L7.09711 38.2135H1.7944V32.223H10.9455L10.046 30.8827H0.246094V47.4823H9.8223L10.7083 46.142Z" fill="white"/>
<path d="M17.2014 40.1515L12.4402 47.4823H10.686L16.3333 38.9561L10.9143 30.8873H12.7131L17.2014 37.8694L21.7121 30.8873H23.511L18.1367 38.9561L23.7616 47.4823H21.9851L17.2014 40.1515Z" fill="white"/>
<path d="M24.1685 47.4823V30.8873H30.1604C31.2254 30.8873 32.1025 31.0095 32.7916 31.254C33.4807 31.4985 34.0311 31.8381 34.4294 32.2683C34.8321 32.6985 35.114 33.192 35.2707 33.7535C35.4318 34.3149 35.5078 34.9036 35.5078 35.5149C35.5078 36.4386 35.3199 37.1993 34.9485 37.797C34.5771 38.3947 34.0938 38.8701 33.5031 39.2142C32.9079 39.5583 32.2367 39.8029 31.4849 39.9387C30.7332 40.0745 29.9769 40.147 29.2207 40.147H25.7124V47.4778H24.1641L24.1685 47.4823ZM29.2699 38.8158C29.9993 38.8158 30.6526 38.7705 31.2299 38.6799C31.8071 38.5894 32.2949 38.4128 32.6976 38.1637C33.1004 37.9102 33.4091 37.566 33.6329 37.1268C33.8521 36.6876 33.964 36.1171 33.964 35.4107C33.964 34.3648 33.6239 33.5769 32.9482 33.0381C32.2725 32.4992 31.1985 32.2321 29.7263 32.2321H25.7168V38.8248H29.2699V38.8158Z" fill="white"/>
<path d="M35.7139 39.2052C35.7139 37.9917 35.875 36.8551 36.2016 35.7956C36.5283 34.7361 37.0116 33.8078 37.647 33.02C38.2869 32.2276 39.0745 31.6027 40.0187 31.1408C40.9584 30.679 42.0458 30.4481 43.2764 30.4481C44.507 30.4481 45.6704 30.6745 46.637 31.1273C47.6036 31.5801 48.4046 32.2049 49.0534 32.9928C49.6978 33.7852 50.1856 34.7134 50.5122 35.782C50.8389 36.8506 51 37.9917 51 39.2052C51 40.4187 50.8344 41.528 50.5122 42.583C50.1856 43.6335 49.7023 44.5572 49.0669 45.3496C48.427 46.142 47.6304 46.7669 46.6773 47.2288C45.7197 47.6906 44.6099 47.9215 43.3525 47.9215C42.095 47.9215 40.9853 47.6906 40.0276 47.2288C39.07 46.7669 38.2735 46.142 37.6336 45.3496C36.9937 44.5572 36.5193 43.6381 36.1972 42.583C35.8794 41.5326 35.7183 40.4051 35.7183 39.2052H35.7139ZM43.3704 46.5812C44.4309 46.5812 45.3482 46.3775 46.1134 45.97C46.8786 45.5625 47.5096 45.0236 48.0018 44.3444C48.4941 43.6698 48.861 42.8864 49.0937 41.9944C49.3309 41.1024 49.4472 40.1742 49.4472 39.2052C49.4472 38.0505 49.3085 37.0182 49.0266 36.1035C48.7447 35.1889 48.3375 34.41 47.8094 33.7625C47.2769 33.115 46.6325 32.626 45.8718 32.2864C45.1111 31.9468 44.2609 31.7793 43.3211 31.7793C42.274 31.7793 41.3656 31.9876 40.6004 32.3996C39.8352 32.8162 39.2043 33.3641 38.712 34.0478C38.2198 34.7315 37.8529 35.5194 37.6157 36.4114C37.3785 37.3034 37.2622 38.2317 37.2622 39.2006C37.2622 40.1696 37.3785 41.1205 37.6157 42.0125C37.8529 42.9045 38.2153 43.6879 38.712 44.3625C39.2043 45.0372 39.8352 45.576 40.6004 45.9745C41.3656 46.373 42.2919 46.5722 43.3704 46.5722V46.5812Z" fill="white"/>
<path d="M0.246094 53.5V49.1124H0.953122V52.8842H2.78782V53.5H0.246094Z" fill="#51C2BD"/>
<path d="M13.232 53.5L12.7979 52.282H11.1377L10.7126 53.5H9.96533L11.5897 49.0943H12.3594L13.9838 53.5H13.232ZM12.61 51.6616L12.2028 50.4662C12.1714 50.3847 12.1312 50.258 12.0819 50.0859C12.0282 49.9138 11.9924 49.787 11.9745 49.7055C11.9208 49.9501 11.8448 50.2217 11.7419 50.5115L11.3481 51.6571H12.61V51.6616Z" fill="#51C2BD"/>
<path d="M23.059 53.5H22.352V49.7282H21.0767V49.1124H24.3388V49.7282H23.0635V53.5H23.059Z" fill="#51C2BD"/>
<path d="M34.689 53.5L34.255 52.282H32.5948L32.1697 53.5H31.4224L33.0467 49.0943H33.8164L35.4408 53.5H34.689ZM34.067 51.6616L33.6598 50.4662C33.6285 50.3847 33.5882 50.258 33.539 50.0859C33.4853 49.9138 33.4495 49.787 33.4316 49.7055C33.3779 49.9501 33.3018 50.2217 33.1989 50.5115L32.8051 51.6571H34.067V51.6616Z" fill="#51C2BD"/>
<path d="M44.8916 53.5L43.6341 49.8323H43.6118C43.6476 50.3757 43.661 50.8873 43.661 51.3628V53.4955H43.0166V49.1078H44.0145L45.2182 52.5989H45.2361L46.4757 49.1078H47.478V53.4955H46.7979V51.3266C46.7979 51.1092 46.8023 50.824 46.8158 50.4753C46.8247 50.1266 46.8337 49.9138 46.8426 49.8369H46.8202L45.5181 53.4955H44.8916V53.5Z" fill="#51C2BD"/>
</g>
<defs>
<linearGradient id="paint0_linear_834_269" x1="3.28455" y1="0.5" x2="3.28455" y2="6.93879" gradientUnits="userSpaceOnUse">
<stop stop-color="#51C2BD"/>
<stop offset="0.22" stop-color="#43ACA7"/>
<stop offset="0.67" stop-color="#227671"/>
<stop offset="1" stop-color="#074A46"/>
</linearGradient>
<linearGradient id="paint1_linear_834_269" x1="28.6795" y1="0.522644" x2="28.6795" y2="29.1666" gradientUnits="userSpaceOnUse">
<stop stop-color="#51C2BD"/>
<stop offset="0.22" stop-color="#43ACA7"/>
<stop offset="0.67" stop-color="#227671"/>
<stop offset="1" stop-color="#074A46"/>
</linearGradient>
<clipPath id="clip0_834_269">
<rect width="51" height="53" fill="white" transform="translate(0 0.5)"/>
</clipPath>
</defs>
</svg>