<svg xmlns="http://www.w3.org/2000/svg" xml:space="preserve" style="enable-background:new 0 0 1190.6 841.9" viewBox="0 0 1190.6 841.9"><style>.st0{fill:#3c3c3b}.st1{fill:#d35368}.st2{fill:#fff}.st3{font-family:&quot;Arial-BoldMT&quot;}.st4{font-size:9.5137px}.st5{fill:#89a145}.st6{fill:#20192e}.st7{font-family:&quot;Helvetica&quot;}.st8{font-size:10px}.st9{fill:#1d1d1b}.st10{fill:#8de5e1;stroke:#1d1d1b;stroke-miterlimit:10}.st11{font-size:9px}.st13{font-family:&quot;ArialMT&quot;}.st14{fill:none;stroke:#fff;stroke-width:.75;stroke-miterlimit:10}.st15{fill-rule:evenodd;clip-rule:evenodd;fill:#20192e}.st17,.st18{fill:none;stroke:#1d1d1b;stroke-miterlimit:10}.st18{fill:#69e56c;stroke-width:.5}.st19,.st20,.st21,.st22,.st23{fill:#c2aa33;stroke:#1d1d1b;stroke-miterlimit:10}.st20,.st21,.st22,.st23{fill:#662483}.st21,.st22,.st23{fill:#f39200}.st22,.st23{fill:none;stroke-width:.7621}.st23{stroke-width:.9457}</style><g id="Background" style="cursor:pointer"><path d="M621.3 760.2H716v3h-94.7z" class="st0"/><path d="M1142.2 763.2H812.9v-3h326.3V178.6H973.1v23.7l-238-1v-23.7H575.6V202H372.4v-20.6H51.7v515.2h127.5v63.6h341.3v3H176.2v-63.6H48.7V178.4h326.7V199h197.2v-24.4h165.5v23.7l232 1v-23.7h172.1z" class="st0"/><path d="M806.84 775.544h-87.5v-7.6h87.5z" class="st1"/><path d="m763.7 782 58.5-7.4h-117z" class="st1"/><text class="st2 st3 st4" transform="translate(753.582 777.036)">EXIT</text><path d="M525.2 774.9h87.5v7.6h-87.5z" class="st5"/><path d="m568.3 768.5-58.5 7.4h117z" class="st5"/><text class="st2 st3 st4" transform="translate(542.793 780.493)">ENTRANCE</text></g><g id="Registration" style="cursor:pointer"><text class="st6 st7 st8" transform="translate(366.725 814.155)">REGISTRATION AREA</text><path d="M340.1 788.7v.9h157.7v8H341.1v-8.9h-1v.9-.9h-1v10.9h160.6v-11.9H339.1v1zM457.4 776.5v1h16.8v5.1h-15.9v-6.1h-.9v1-1h-1v8.1h19.8v-9h-19.8v.9zM480.9 776.5v1h16.9v5.1h-15.9v-6.1h-1v1-1h-1v8.1h19.8v-9h-19.8v.9zM434.2 776.5v1h16.9v5.1h-15.9v-6.1h-1v1-1h-.9v8.1h19.8v-9h-19.8v.9zM410.5 776.5v1h16.8v5.1h-15.9v-6.1h-.9v1-1h-1v8.1h19.8v-9h-19.8v.9zM387.3 776.5v1h16.9v5.1h-15.9v-6.1h-1v1-1h-.9v8.1h19.8v-9h-19.8v.9zM363.2 776.5v1h16.9v5.1h-15.9v-6.1h-1v1-1h-.9v8.1H382v-9h-19.7v.9zM340.1 776.5v1H357v5.1h-15.9v-6.1h-1v1-1h-1v8.1h19.8v-9h-19.8v.9z" class="st9"/></g><g id="Cloakroom" style="cursor:pointer"><path d="M428.3 718.2h65.2v38.3h-65.2z" class="st10"/><path d="M472.4 733.8c-.2-.7-1-1.4-2.4-2.1-2.4-1.1-3.7-1.7-4.6-2.6-.2-.1-.4-.5-.6-.8-.3-.4-.6-.9-.9-1.2-.5-.4-1-.6-1.3-.7V725.5c.1-.1.1-.2.2-.3.2-.2.5-.5.5-1.1 0-.9-.7-1.5-1.5-1.5s-1.1.5-1.3.8l-.1.1c-.1.2-.1.4 0 .5.2.1.4.1.5 0 .1-.1.1-.2.2-.3.2-.3.3-.4.7-.4.4 0 .8.3.8.8 0 .3-.1.4-.3.5-.1.1-.3.3-.4.5-.1.3-.1.6-.1 1v.2c-.3.1-.8.2-1.2.7-.3.3-.6.8-.9 1.2-.2.3-.4.6-.6.8-.9.9-2.2 1.5-4.6 2.6-1.4.7-2.2 1.3-2.4 2.1-.1.3 0 .6.1.8.1.1.3.2.5.2s.3-.1.4-.1l.2-.1h18l.2.1s.2.1.3.1c.2 0 .4-.1.5-.2.1-.1.2-.4.1-.7zm-17-.3 6.8-3.9 6.8 3.9h-13.6z" class="st6"/><text class="st6 st7 st11" transform="translate(431.66 745.98)">CLOAKROOM</text></g><g id="Business_Lounge" style="cursor:pointer"><path d="M983.9 571.6h78.4v104.8h-78.4z" class="st10"/><text transform="translate(998.45 620.71)"><tspan x="0" y="0" class="st6 st7 st8">BUSINESS</tspan><tspan x="4.2" y="10" class="st6 st7 st8">LOUNGE</tspan></text><path d="M1008.3 593.5c-1.9 2-5.1 2-7 0-1.9-1.9-1.9-4.9 0-6.9s5.1-2 7 0c1.9 1.9 1.9 5 0 6.9zM999.1 585.8l-1.6-1.7 1.6-1.7 1.6 1.7-1.6 1.7m0 1.3 2.9-3-2.9-3-2.9 3 2.9 3zM1010.4 597.7l-1.6-1.7 1.6-1.7 1.6 1.7-1.6 1.7m0 1.3 2.9-3-2.9-3-2.9 3 2.9 3zM1010.6 585.8l-1.6-1.7 1.6-1.7 1.6 1.7-1.6 1.7m0 1.3 2.9-3-2.9-3-2.9 3 2.9 3zM999 597.6l-1.6-1.7 1.6-1.7 1.6 1.7-1.6 1.7m0 1.3 2.9-3-2.9-3-2.9 3 2.9 3zM1043.1 593.5c-1.9 2-5.1 2-7 0-1.9-1.9-1.9-4.9 0-6.9s5.1-2 7 0c1.8 1.9 1.8 5 0 6.9zM1033.8 585.8l-1.6-1.7 1.6-1.7 1.6 1.7-1.6 1.7m0 1.3 2.9-3-2.9-3-2.9 3 2.9 3zM1045.2 597.7l-1.6-1.7 1.6-1.7 1.6 1.7-1.6 1.7m0 1.3 2.9-3-2.9-3-2.9 3 2.9 3zM1045.4 585.8l-1.6-1.7 1.6-1.7 1.6 1.7-1.6 1.7m0 1.3 2.9-3-2.9-3-2.9 3 2.9 3zM1033.8 597.6l-1.6-1.7 1.6-1.7 1.6 1.7-1.6 1.7m0 1.3 2.9-3-2.9-3-2.9 3 2.9 3zM1012.1 658.5c-1.9 2-5.1 2-7 0-1.9-1.9-1.9-4.9 0-6.9s5.1-2 7 0c1.9 2 1.9 5 0 6.9zM1002.9 650.9l-1.6-1.7 1.6-1.7 1.6 1.7-1.6 1.7m0 1.3 2.9-3-2.9-3-2.9 3 2.9 3zM1014.2 662.7l-1.6-1.7 1.6-1.7 1.6 1.7-1.6 1.7m0 1.4 2.9-3-2.9-3-2.9 3 2.9 3zM1014.4 650.8l-1.6-1.7 1.6-1.7 1.6 1.7-1.6 1.7m0 1.4 2.9-3-2.9-3-2.9 3 2.9 3zM1002.8 662.7l-1.6-1.7 1.6-1.7 1.6 1.7-1.6 1.7m0 1.3 2.9-3-2.9-3-2.9 3 2.9 3zM1046.9 658.5c-1.9 2-5.1 2-7 0-1.9-1.9-1.9-4.9 0-6.9s5.1-2 7 0c1.8 2 1.8 5 0 6.9zM1037.6 650.9l-1.6-1.7 1.6-1.7 1.6 1.7-1.6 1.7m0 1.3 2.9-3-2.9-3-2.9 3 2.9 3zM1049 662.7l-1.6-1.7 1.6-1.7 1.6 1.7-1.6 1.7m0 1.4 2.9-3-2.9-3-2.9 3 2.9 3zM1049.2 650.8l-1.6-1.7 1.6-1.7 1.6 1.7-1.6 1.7m0 1.4 2.9-3-2.9-3-2.9 3 2.9 3zM1037.6 662.7l-1.6-1.7 1.6-1.7 1.6 1.7-1.6 1.7m0 1.3 2.9-3-2.9-3-2.9 3 2.9 3z"/></g><g id="Speakers_Hall" style="cursor:pointer"><path d="M984.9 183.9H1129v208.6H984.9z" style="fill:#1a5f5a;stroke:#38245f;stroke-miterlimit:10"/><text class="st2 st13 st8" transform="translate(1019.725 258.516)">SPEAKER HALL</text><path d="m1025.4 194.4-30.3 11.4-.3-.6 30.4-11.4zM1024.3 195.2h8.7v.6h-8.7zM1088.8 194.4l30.4 11.4.2-.6-30.3-11.4zM1081.3 195.2h8.6v.6h-8.6zM1033.3 192.2h47.6v3.2h-47.6zM1043.9 230.1h26.4v3.2h-26.4zM1049.2 220.3h6.5v4.2h-6.5zM1059 220.3h6.5v4.2h-6.5zM1021 213.1c0 .6-.5 1.1-1.1 1.1h-5.4c-.6 0-1.1-.5-1.1-1.1v-6.4c0-.6.5-1.1 1.1-1.1h5.4c.6 0 1.1.5 1.1 1.1v6.4zM1014.8 205.6v8.6M1019.5 205.6v8.6" class="st14"/><path d="M1019.5 207.5c-.7.2-1.5.2-2.3.2-.8 0-1.6-.1-2.3-.2M1032.4 213.1c0 .6-.5 1.1-1.1 1.1h-5.4c-.6 0-1.1-.5-1.1-1.1v-6.4c0-.6.5-1.1 1.1-1.1h5.4c.6 0 1.1.5 1.1 1.1v6.4zM1026.3 205.6v8.6M1030.9 205.6v8.6" class="st14"/><path d="M1030.9 207.5c-.7.2-1.5.2-2.3.2-.8 0-1.6-.1-2.3-.2M1043.9 213.1c0 .6-.5 1.1-1.1 1.1h-5.4c-.6 0-1.1-.5-1.1-1.1v-6.4c0-.6.5-1.1 1.1-1.1h5.4c.6 0 1.1.5 1.1 1.1v6.4zM1037.7 205.6v8.6M1042.4 205.6v8.6" class="st14"/><path d="M1042.4 207.5c-.7.2-1.5.2-2.3.2-.8 0-1.6-.1-2.3-.2M1055.3 213.1c0 .6-.5 1.1-1.1 1.1h-5.4c-.6 0-1.1-.5-1.1-1.1v-6.4c0-.6.5-1.1 1.1-1.1h5.4c.6 0 1.1.5 1.1 1.1v6.4zM1049.2 205.6v8.6M1053.8 205.6v8.6" class="st14"/><path d="M1053.8 207.5c-.7.2-1.5.2-2.3.2-.8 0-1.6-.1-2.3-.2M1066.8 213.1c0 .6-.5 1.1-1.1 1.1h-5.4c-.6 0-1.1-.5-1.1-1.1v-6.4c0-.6.5-1.1 1.1-1.1h5.4c.6 0 1.1.5 1.1 1.1v6.4zM1060.6 205.6v8.6M1065.3 205.6v8.6" class="st14"/><path d="M1065.3 207.5c-.7.2-1.5.2-2.3.2-.8 0-1.6-.1-2.3-.2M1078.2 213.1c0 .6-.5 1.1-1.1 1.1h-5.4c-.6 0-1.1-.5-1.1-1.1v-6.4c0-.6.5-1.1 1.1-1.1h5.4c.6 0 1.1.5 1.1 1.1v6.4zM1072.1 205.6v8.6M1076.7 205.6v8.6" class="st14"/><path d="M1076.7 207.5c-.7.2-1.5.2-2.3.2-.8 0-1.6-.1-2.3-.2M1089.7 213.1c0 .6-.5 1.1-1.1 1.1h-5.4c-.6 0-1.1-.5-1.1-1.1v-6.4c0-.6.5-1.1 1.1-1.1h5.4c.6 0 1.1.5 1.1 1.1v6.4zM1083.5 205.6v8.6M1088.2 205.6v8.6" class="st14"/><path d="M1088.2 207.5c-.7.2-1.5.2-2.3.2-.8 0-1.6-.1-2.3-.2M1101.1 213.1c0 .6-.5 1.1-1.1 1.1h-5.4c-.6 0-1.1-.5-1.1-1.1v-6.4c0-.6.5-1.1 1.1-1.1h5.4c.6 0 1.1.5 1.1 1.1v6.4zM1095 205.6v8.6M1099.6 205.6v8.6" class="st14"/><path d="M1099.6 207.5c-.7.2-1.5.2-2.3.2-.8 0-1.6-.1-2.3-.2M1010 277.5h6v4.3s-.5 2-3 2-3-2-3-2v-4.3zM1020.4 277.5h6v4.3s-.5 2-3 2-3-2-3-2v-4.3zM999.6 277.5h6v4.3s-.5 2-3 2-3-2-3-2v-4.3zM1030.9 277.5h6v4.3s-.5 2-3 2-3-2-3-2v-4.3zM1041.3 277.5h6v4.3s-.5 2-3 2-3-2-3-2v-4.3zM1070.3 277.5h6v4.3s-.5 2-3 2-3-2-3-2v-4.3zM1080.7 277.5h6v4.3s-.5 2-3 2-3-2-3-2v-4.3zM1091.2 277.5h6v4.3s-.5 2-3 2-3-2-3-2v-4.3zM1101.6 277.5h6v4.3s-.5 2-3 2-3-2-3-2v-4.3zM1010 289.8h6v4.3s-.5 2-3 2-3-2-3-2v-4.3zM1020.4 289.8h6v4.3s-.5 2-3 2-3-2-3-2v-4.3zM999.6 289.8h6v4.3s-.5 2-3 2-3-2-3-2v-4.3zM1030.9 289.8h6v4.3s-.5 2-3 2-3-2-3-2v-4.3zM1041.3 289.8h6v4.3s-.5 2-3 2-3-2-3-2v-4.3zM1070.3 289.8h6v4.3s-.5 2-3 2-3-2-3-2v-4.3zM1080.7 289.8h6v4.3s-.5 2-3 2-3-2-3-2v-4.3zM1091.2 289.8h6v4.3s-.5 2-3 2-3-2-3-2v-4.3zM1101.6 289.8h6v4.3s-.5 2-3 2-3-2-3-2v-4.3zM1010 302.6h6v4.3s-.5 2-3 2-3-2-3-2v-4.3zM1020.4 302.6h6v4.3s-.5 2-3 2-3-2-3-2v-4.3zM999.6 302.6h6v4.3s-.5 2-3 2-3-2-3-2v-4.3zM1030.9 302.6h6v4.3s-.5 2-3 2-3-2-3-2v-4.3zM1041.3 302.6h6v4.3s-.5 2-3 2-3-2-3-2v-4.3zM1070.3 302.6h6v4.3s-.5 2-3 2-3-2-3-2v-4.3zM1080.7 302.6h6v4.3s-.5 2-3 2-3-2-3-2v-4.3zM1091.2 302.6h6v4.3s-.5 2-3 2-3-2-3-2v-4.3zM1101.6 302.6h6v4.3s-.5 2-3 2-3-2-3-2v-4.3zM1010 315.5h6v4.3s-.5 2-3 2-3-2-3-2v-4.3zM1020.4 315.5h6v4.3s-.5 2-3 2-3-2-3-2v-4.3zM999.6 315.5h6v4.3s-.5 2-3 2-3-2-3-2v-4.3zM1030.9 315.5h6v4.3s-.5 2-3 2-3-2-3-2v-4.3zM1041.3 315.5h6v4.3s-.5 2-3 2-3-2-3-2v-4.3zM1070.3 315.5h6v4.3s-.5 2-3 2-3-2-3-2v-4.3zM1080.7 315.5h6v4.3s-.5 2-3 2-3-2-3-2v-4.3zM1091.2 315.5h6v4.3s-.5 2-3 2-3-2-3-2v-4.3zM1101.6 315.5h6v4.3s-.5 2-3 2-3-2-3-2v-4.3zM1010 328.4h6v4.3s-.5 2-3 2-3-2-3-2v-4.3zM1020.4 328.4h6v4.3s-.5 2-3 2-3-2-3-2v-4.3zM999.6 328.4h6v4.3s-.5 2-3 2-3-2-3-2v-4.3zM1030.9 328.4h6v4.3s-.5 2-3 2-3-2-3-2v-4.3zM1041.3 328.4h6v4.3s-.5 2-3 2-3-2-3-2v-4.3zM1070.3 328.4h6v4.3s-.5 2-3 2-3-2-3-2v-4.3zM1080.7 328.4h6v4.3s-.5 2-3 2-3-2-3-2v-4.3zM1091.2 328.4h6v4.3s-.5 2-3 2-3-2-3-2v-4.3zM1101.6 328.4h6v4.3s-.5 2-3 2-3-2-3-2v-4.3zM1010 341.3h6v4.3s-.5 2-3 2-3-2-3-2v-4.3zM1020.4 341.3h6v4.3s-.5 2-3 2-3-2-3-2v-4.3zM999.6 341.3h6v4.3s-.5 2-3 2-3-2-3-2v-4.3zM1030.9 341.3h6v4.3s-.5 2-3 2-3-2-3-2v-4.3zM1041.3 341.3h6v4.3s-.5 2-3 2-3-2-3-2v-4.3zM1070.3 341.3h6v4.3s-.5 2-3 2-3-2-3-2v-4.3zM1080.7 341.3h6v4.3s-.5 2-3 2-3-2-3-2v-4.3zM1091.2 341.3h6v4.3s-.5 2-3 2-3-2-3-2v-4.3zM1101.6 341.3h6v4.3s-.5 2-3 2-3-2-3-2v-4.3zM1010 354.2h6v4.3s-.5 2-3 2-3-2-3-2v-4.3zM1020.4 354.2h6v4.3s-.5 2-3 2-3-2-3-2v-4.3zM999.6 354.2h6v4.3s-.5 2-3 2-3-2-3-2v-4.3zM1030.9 354.2h6v4.3s-.5 2-3 2-3-2-3-2v-4.3zM1041.3 354.2h6v4.3s-.5 2-3 2-3-2-3-2v-4.3zM1070.3 354.2h6v4.3s-.5 2-3 2-3-2-3-2v-4.3zM1080.7 354.2h6v4.3s-.5 2-3 2-3-2-3-2v-4.3zM1091.2 354.2h6v4.3s-.5 2-3 2-3-2-3-2v-4.3zM1101.6 354.2h6v4.3s-.5 2-3 2-3-2-3-2v-4.3zM1010 367.1h6v4.3s-.5 2-3 2-3-2-3-2v-4.3zM1020.4 367.1h6v4.3s-.5 2-3 2-3-2-3-2v-4.3zM999.6 367.1h6v4.3s-.5 2-3 2-3-2-3-2v-4.3zM1030.9 367.1h6v4.3s-.5 2-3 2-3-2-3-2v-4.3zM1041.3 367.1h6v4.3s-.5 2-3 2-3-2-3-2v-4.3zM1070.3 367.1h6v4.3s-.5 2-3 2-3-2-3-2v-4.3zM1080.7 367.1h6v4.3s-.5 2-3 2-3-2-3-2v-4.3zM1091.2 367.1h6v4.3s-.5 2-3 2-3-2-3-2v-4.3zM1101.6 367.1h6v4.3s-.5 2-3 2-3-2-3-2v-4.3zM1110.7 277.5h6v4.3s-.5 2-3 2-3-2-3-2v-4.3zM1110.7 289.8h6v4.3s-.5 2-3 2-3-2-3-2v-4.3zM1110.7 302.6h6v4.3s-.5 2-3 2-3-2-3-2v-4.3zM1110.7 315.5h6v4.3s-.5 2-3 2-3-2-3-2v-4.3zM1110.7 328.4h6v4.3s-.5 2-3 2-3-2-3-2v-4.3zM1110.7 341.3h6v4.3s-.5 2-3 2-3-2-3-2v-4.3zM1110.7 354.2h6v4.3s-.5 2-3 2-3-2-3-2v-4.3zM1110.7 367.1h6v4.3s-.5 2-3 2-3-2-3-2v-4.3z" class="st14"/></g><g id="Networking_Lounge" style="cursor:pointer"><path d="M583.8 180.5H730v56.8H583.8z" class="st10"/><text class="st7 st8" transform="translate(599.955 212.748)">NETWORKING LOUNGE</text><path d="M657.2 195.6c-1.9 2-5.1 2-7 0-1.9-1.9-1.9-4.9 0-6.9s5.1-2 7 0c1.9 2 1.9 5 0 6.9zM648 188l-1.6-1.7 1.6-1.7 1.6 1.7-1.6 1.7m0 1.3 2.9-3-2.9-3-2.9 3 2.9 3zM659.3 199.8l-1.6-1.7 1.6-1.7 1.6 1.7-1.6 1.7m0 1.4 2.9-3-2.9-3-2.9 3 2.9 3zM659.5 188l-1.6-1.7 1.6-1.7 1.6 1.7-1.6 1.7m0 1.3 2.9-3-2.9-3-2.9 3 2.9 3zM647.9 199.8l-1.6-1.7 1.6-1.7 1.6 1.7-1.6 1.7m0 1.3 2.9-3-2.9-3-2.9 3 2.9 3zM715.4 195.6c-1.9 2-5.1 2-7 0-1.9-1.9-1.9-4.9 0-6.9s5.1-2 7 0c1.8 2 1.8 5 0 6.9zM706.1 188l-1.6-1.7 1.6-1.7 1.6 1.7-1.6 1.7m0 1.3 2.9-3-2.9-3-2.9 3 2.9 3zM717.5 199.8l-1.6-1.7 1.6-1.7 1.6 1.7-1.6 1.7m0 1.4 2.9-3-2.9-3-2.9 3 2.9 3zM717.7 188l-1.6-1.7 1.6-1.7 1.6 1.7-1.6 1.7m0 1.3 2.9-3-2.9-3-2.9 3 2.9 3zM706.1 199.8l-1.6-1.7 1.6-1.7 1.6 1.7-1.6 1.7m0 1.3 2.9-3-2.9-3-2.9 3 2.9 3zM605.4 195.6c-1.9 2-5.1 2-7 0-1.9-1.9-1.9-4.9 0-6.9s5.1-2 7 0c1.9 2 1.9 5 0 6.9zM596.2 188l-1.6-1.7 1.6-1.7 1.6 1.7-1.6 1.7m0 1.3 2.9-3-2.9-3-2.9 3 2.9 3zM607.5 199.8l-1.6-1.7 1.6-1.7 1.6 1.7-1.6 1.7m0 1.4 2.9-3-2.9-3-2.9 3 2.9 3zM607.7 188l-1.6-1.7 1.6-1.7 1.6 1.7-1.6 1.7m0 1.3 2.9-3-2.9-3-2.9 3 2.9 3zM596.1 199.8l-1.6-1.7 1.6-1.7 1.6 1.7-1.6 1.7m0 1.3 2.9-3-2.9-3-2.9 3 2.9 3zM688.6 228.9c-1.9 2-5.1 2-7 0-1.9-1.9-1.9-4.9 0-6.9s5.1-2 7 0c1.9 2 1.9 5 0 6.9zM679.4 221.3l-1.6-1.7 1.6-1.7 1.6 1.7-1.6 1.7m0 1.3 2.9-3-2.9-3-2.9 3 2.9 3zM690.7 233.1l-1.6-1.7 1.6-1.7 1.6 1.7-1.6 1.7m0 1.3 2.9-3-2.9-3-2.9 3 2.9 3zM690.9 221.2l-1.6-1.7 1.6-1.7 1.6 1.7-1.6 1.7m0 1.4 2.9-3-2.9-3-2.9 3 2.9 3zM679.3 233l-1.6-1.7 1.6-1.7 1.6 1.7-1.6 1.7m0 1.4 2.9-3-2.9-3-2.9 3 2.9 3zM629.8 228.9c-1.9 2-5.1 2-7 0-1.9-1.9-1.9-4.9 0-6.9s5.1-2 7 0c1.9 2 1.9 5 0 6.9zM620.6 221.3l-1.6-1.7 1.6-1.7 1.6 1.7-1.6 1.7m0 1.3 2.9-3-2.9-3-2.9 3 2.9 3zM632 233.1l-1.6-1.7 1.6-1.7 1.6 1.7-1.6 1.7m0 1.3 2.9-3-2.9-3-2.9 3 2.9 3zM632.1 221.2l-1.6-1.7 1.6-1.7 1.6 1.7-1.6 1.7m0 1.4 2.9-3-2.9-3-2.9 3 2.9 3zM620.6 233l-1.6-1.7 1.6-1.7 1.6 1.7-1.6 1.7m0 1.4 2.9-3-2.9-3-2.9 3 2.9 3z"/></g><g id="Coffee_Bar_Lounge" style="cursor:pointer"><path d="M600.1 347.5h125.6v93.8H600.1z" class="st10"/><text transform="translate(629.83 403.098)"><tspan x="0" y="0" class="st6 st7 st8">COFFEE BAR</tspan><tspan x="10.8" y="10" class="st6 st7 st8">LOUNGE</tspan></text><path d="M662.7 380.5h6.9c.4 0 .5.1.5.5 0 .3 0 .6-.1.8l-.6 2.1c-.4 1.3-1 2.7-1.7 3.9-.2.4-.5.8-.8 1.1-.2.2-.4.4-.7.6-.2.1-.4.1-.5.1h-5.8c-.4 0-.7-.2-1-.5-.5-.5-.9-1-1.2-1.7-.9-1.6-1.5-3.4-2-5.2-.1-.2-.2-.4-.2-.7 0-.3-.1-.6 0-.8 0-.3.2-.4.5-.4 2.1.2 4.4.2 6.7.2zM662.7 390.1h8.4c.4 0 .7.3.5.7-.1.1-.1.3-.2.4-.2.2-.3.5-.5.7 0 .1-.1.1-.2.1h-15.5c-.2 0-.4-.1-.6-.2-.3-.3-.6-.5-.7-.9-.1-.1-.1-.2-.1-.3-.1-.3.2-.6.5-.6h7.2c.3.1.8.1 1.2.1zM673.7 383.4c0 .4-.1.8-.3 1.1l-.9 1.5c-.4.6-.9 1-1.7 1-.6.1-1.2-.1-1.6-.5-.2-.1-.2-.2-.1-.4s.2-.4.3-.7c0-.1.1-.1.2-.1.7.4 1.5.2 1.9-.5.1-.2.2-.4.4-.6.3-.6.1-1.3-.5-1.5-.2-.1-.5-.2-.8-.1-.2 0-.2 0-.2-.2.1-.3.1-.6.2-.9 0-.1.1-.1.2-.2 1.1-.4 2.3.1 2.7 1.1.1.4.2.7.2 1zM663.7 379.4s.1-.1 0 0c.5-.6.9-1.2 1.2-1.8.1-.2.1-.4.2-.6.1-.3 0-.5-.3-.7-.4-.3-.7-.5-1.1-.8-.4-.3-.7-.7-1-1.1-.3-.5-.3-1-.1-1.5.2-.4.5-.8.8-1.1.4-.5.8-.9 1.3-1.3l.1-.1s0 .1-.1.1c-.3.4-.6.9-.7 1.4-.1.3-.1.5-.1.8 0 .1.1.3.2.4.2.3.5.5.7.7.3.3.7.6 1 1 .3.3.5.7.5 1.2 0 .3-.2.6-.3.9-.3.5-.7 1-1.1 1.4-.3.3-.7.7-1.2 1.1.1 0 .1 0 0 0z" class="st15"/><path d="M663 379.4c0-.1.1-.3.1-.4.1-.3.1-.6.2-.8v-.3c0-.3-.1-.4-.4-.5-.4-.1-.8-.3-1.1-.5-.2-.1-.3-.2-.4-.3-.2-.2-.3-.5-.3-.8.1-.5.3-.9.5-1.3.1-.2.2-.3.3-.5 0 0 0-.1.1-.1v.1c0 .3-.1.6-.1.9 0 .4.1.6.5.8.2.1.4.2.7.3.3.1.5.2.7.5.2.2.3.5.3.8-.1.5-.3 1-.5 1.4-.3.2-.5.4-.6.7z" class="st15"/><path d="M693.5 430.5c-1.9 2-5.1 2-7 0-1.9-1.9-1.9-4.9 0-6.9s5.1-2 7 0c1.9 2 1.9 5 0 6.9zM684.3 422.9l-1.6-1.7 1.6-1.7 1.6 1.7-1.6 1.7m0 1.3 2.9-3-2.9-3-2.9 3 2.9 3zM695.6 434.7 694 433l1.6-1.7 1.6 1.7-1.6 1.7m0 1.4 2.9-3-2.9-3-2.9 3 2.9 3zM695.8 422.8l-1.6-1.7 1.6-1.7 1.6 1.7-1.6 1.7m0 1.4 2.9-3-2.9-3-2.9 3 2.9 3zM684.2 434.7l-1.6-1.7 1.6-1.7 1.6 1.7-1.6 1.7m0 1.3 2.9-3-2.9-3-2.9 3 2.9 3zM715.6 430.5c-1.9 2-5.1 2-7 0-1.9-1.9-1.9-4.9 0-6.9s5.1-2 7 0c1.9 2 1.9 5 0 6.9zM706.4 422.9l-1.6-1.7 1.6-1.7 1.6 1.7-1.6 1.7m0 1.3 2.9-3-2.9-3-2.9 3 2.9 3zM717.7 434.7l-1.6-1.7 1.6-1.7 1.6 1.7-1.6 1.7m0 1.4 2.9-3-2.9-3-2.9 3 2.9 3zM717.9 422.8l-1.6-1.7 1.6-1.7 1.6 1.7-1.6 1.7m0 1.4 2.9-3-2.9-3-2.9 3 2.9 3zM706.3 434.7l-1.6-1.7 1.6-1.7 1.6 1.7-1.6 1.7m0 1.3 2.9-3-2.9-3-2.9 3 2.9 3zM693.5 365.3c-1.9 2-5.1 2-7 0-1.9-1.9-1.9-4.9 0-6.9s5.1-2 7 0c1.9 1.9 1.9 5 0 6.9zM684.3 357.6l-1.6-1.7 1.6-1.7 1.6 1.7-1.6 1.7m0 1.4 2.9-3-2.9-3-2.9 3 2.9 3zM695.6 369.5l-1.6-1.7 1.6-1.7 1.6 1.7-1.6 1.7m0 1.3 2.9-3-2.9-3-2.9 3 2.9 3zM695.8 357.6l-1.6-1.7 1.6-1.7 1.6 1.7-1.6 1.7m0 1.3 2.9-3-2.9-3-2.9 3 2.9 3zM684.2 369.4l-1.6-1.7 1.6-1.7 1.6 1.7-1.6 1.7m0 1.4 2.9-3-2.9-3-2.9 3 2.9 3zM715.6 365.3c-1.9 2-5.1 2-7 0-1.9-1.9-1.9-4.9 0-6.9s5.1-2 7 0c1.9 1.9 1.9 5 0 6.9zM706.4 357.6l-1.6-1.7 1.6-1.7 1.6 1.7-1.6 1.7m0 1.4 2.9-3-2.9-3-2.9 3 2.9 3zM717.7 369.5l-1.6-1.7 1.6-1.7 1.6 1.7-1.6 1.7m0 1.3 2.9-3-2.9-3-2.9 3 2.9 3zM717.9 357.6l-1.6-1.7 1.6-1.7 1.6 1.7-1.6 1.7m0 1.3 2.9-3-2.9-3-2.9 3 2.9 3zM706.3 369.4l-1.6-1.7 1.6-1.7 1.6 1.7-1.6 1.7m0 1.4 2.9-3-2.9-3-2.9 3 2.9 3zM621.1 430.5c-1.9 2-5.1 2-7 0-1.9-1.9-1.9-4.9 0-6.9s5.1-2 7 0c1.9 2 1.9 5 0 6.9zM611.9 422.9l-1.6-1.7 1.6-1.7 1.6 1.7-1.6 1.7m0 1.3 2.9-3-2.9-3-2.9 3 2.9 3zM623.3 434.7l-1.6-1.7 1.6-1.7 1.6 1.7-1.6 1.7m0 1.4 2.9-3-2.9-3-2.9 3 2.9 3zM623.4 422.8l-1.6-1.7 1.6-1.7 1.6 1.7-1.6 1.7m0 1.4 2.9-3-2.9-3-2.9 3 2.9 3zM611.9 434.7l-1.6-1.7 1.6-1.7 1.6 1.7-1.6 1.7m0 1.3 2.9-3-2.9-3-2.9 3 2.9 3zM643.2 430.5c-1.9 2-5.1 2-7 0-1.9-1.9-1.9-4.9 0-6.9s5.1-2 7 0c1.9 2 1.9 5 0 6.9zM634 422.9l-1.6-1.7 1.6-1.7 1.6 1.7-1.6 1.7m0 1.3 2.9-3-2.9-3-2.9 3 2.9 3zM645.3 434.7l-1.6-1.7 1.6-1.7 1.6 1.7-1.6 1.7m0 1.4 2.9-3-2.9-3-2.9 3 2.9 3zM645.5 422.8l-1.6-1.7 1.6-1.7 1.6 1.7-1.6 1.7m0 1.4 2.9-3-2.9-3-2.9 3 2.9 3zM633.9 434.7l-1.6-1.7 1.6-1.7 1.6 1.7-1.6 1.7m0 1.3 2.9-3-2.9-3-2.9 3 2.9 3zM621.1 365.3c-1.9 2-5.1 2-7 0-1.9-1.9-1.9-4.9 0-6.9s5.1-2 7 0c1.9 1.9 1.9 5 0 6.9zM611.9 357.6l-1.6-1.7 1.6-1.7 1.6 1.7-1.6 1.7m0 1.4 2.9-3-2.9-3-2.9 3 2.9 3zM623.3 369.5l-1.6-1.7 1.6-1.7 1.6 1.7-1.6 1.7m0 1.3 2.9-3-2.9-3-2.9 3 2.9 3zM623.4 357.6l-1.6-1.7 1.6-1.7 1.6 1.7-1.6 1.7m0 1.3 2.9-3-2.9-3-2.9 3 2.9 3zM611.9 369.4l-1.6-1.7 1.6-1.7 1.6 1.7-1.6 1.7m0 1.4 2.9-3-2.9-3-2.9 3 2.9 3zM643.2 365.3c-1.9 2-5.1 2-7 0-1.9-1.9-1.9-4.9 0-6.9s5.1-2 7 0c1.9 1.9 1.9 5 0 6.9zM634 357.6l-1.6-1.7 1.6-1.7 1.6 1.7-1.6 1.7m0 1.4 2.9-3-2.9-3-2.9 3 2.9 3zM645.3 369.5l-1.6-1.7 1.6-1.7 1.6 1.7-1.6 1.7m0 1.3 2.9-3-2.9-3-2.9 3 2.9 3zM645.5 357.6l-1.6-1.7 1.6-1.7 1.6 1.7-1.6 1.7m0 1.3 2.9-3-2.9-3-2.9 3 2.9 3zM633.9 369.4l-1.6-1.7 1.6-1.7 1.6 1.7-1.6 1.7m0 1.4 2.9-3-2.9-3-2.9 3 2.9 3z"/></g><g id="Traders_Lounge" style="cursor:pointer"><path d="M215.2 287.1h156.1v60.4H215.2z" class="st10"/><text class="st7 st8" transform="translate(246.856 319.412)">TRADERS LOUNGE</text><path d="M296.7 302.3c-1.9 2-5.1 2-7 0-1.9-1.9-1.9-4.9 0-6.9s5.1-2 7 0c1.9 2 1.9 5 0 6.9zM287.5 294.7l-1.6-1.7 1.6-1.7 1.6 1.7-1.6 1.7m0 1.3 2.9-3-2.9-3-2.9 3 2.9 3zM298.9 306.5l-1.6-1.7 1.6-1.7 1.6 1.7-1.6 1.7m0 1.3 2.9-3-2.9-3-2.9 3 2.9 3zM299 294.6l-1.6-1.7 1.6-1.7 1.6 1.7-1.6 1.7m0 1.4 2.9-3-2.9-3-2.9 3 2.9 3zM287.5 306.4l-1.6-1.7 1.6-1.7 1.6 1.7-1.6 1.7m0 1.4 2.9-3-2.9-3-2.9 3 2.9 3zM351.8 302.3c-1.9 2-5.1 2-7 0-1.9-1.9-1.9-4.9 0-6.9s5.1-2 7 0c1.8 2 1.8 5 0 6.9zM342.5 294.7l-1.6-1.7 1.6-1.7 1.6 1.7-1.6 1.7m0 1.3 2.9-3-2.9-3-2.9 3 2.9 3zM353.9 306.5l-1.6-1.7 1.6-1.7 1.6 1.7-1.6 1.7m0 1.3 2.9-3-2.9-3-2.9 3 2.9 3zM354 294.6l-1.6-1.7 1.6-1.7 1.6 1.7-1.6 1.7m0 1.4 2.9-3-2.9-3-2.9 3 2.9 3zM342.5 306.4l-1.6-1.7 1.6-1.7 1.6 1.7-1.6 1.7m0 1.4 2.9-3-2.9-3-2.9 3 2.9 3zM241.8 302.3c-1.9 2-5.1 2-7 0-1.9-1.9-1.9-4.9 0-6.9s5.1-2 7 0c1.9 2 1.9 5 0 6.9zM232.6 294.7 231 293l1.6-1.7 1.6 1.7-1.6 1.7m0 1.3 2.9-3-2.9-3-2.9 3 2.9 3zM243.9 306.5l-1.6-1.7 1.6-1.7 1.6 1.7-1.6 1.7m0 1.3 2.9-3-2.9-3-2.9 3 2.9 3zM244.1 294.6l-1.6-1.7 1.6-1.7 1.6 1.7-1.6 1.7m0 1.4 2.9-3-2.9-3-2.9 3 2.9 3zM232.5 306.4l-1.6-1.7 1.6-1.7 1.6 1.7-1.6 1.7m0 1.4 2.9-3-2.9-3-2.9 3 2.9 3zM327 337.6c-1.9 2-5.1 2-7 0-1.9-1.9-1.9-4.9 0-6.9s5.1-2 7 0c1.8 1.9 1.8 5 0 6.9zM317.7 329.9l-1.6-1.7 1.6-1.7 1.6 1.7-1.6 1.7m0 1.3 2.9-3-2.9-3-2.9 3 2.9 3zM329.1 341.8l-1.6-1.7 1.6-1.7 1.6 1.7-1.6 1.7m0 1.3 2.9-3-2.9-3-2.9 3 2.9 3zM329.3 329.9l-1.6-1.7 1.6-1.7 1.6 1.7-1.6 1.7m0 1.3 2.9-3-2.9-3-2.9 3 2.9 3zM317.7 341.7l-1.6-1.7 1.6-1.7 1.6 1.7-1.6 1.7m0 1.3 2.9-3-2.9-3-2.9 3 2.9 3zM269.4 337.6c-1.9 2-5.1 2-7 0-1.9-1.9-1.9-4.9 0-6.9s5.1-2 7 0c1.8 1.9 1.8 5 0 6.9zM260.1 329.9l-1.6-1.7 1.6-1.7 1.6 1.7-1.6 1.7m0 1.3 2.9-3-2.9-3-2.9 3 2.9 3zM271.5 341.8l-1.6-1.7 1.6-1.7 1.6 1.7-1.6 1.7m0 1.3 2.9-3-2.9-3-2.9 3 2.9 3zM271.7 329.9l-1.6-1.7 1.6-1.7 1.6 1.7-1.6 1.7m0 1.3 2.9-3-2.9-3-2.9 3 2.9 3zM260.1 341.7l-1.6-1.7 1.6-1.7 1.6 1.7-1.6 1.7m0 1.3 2.9-3-2.9-3-2.9 3 2.9 3z"/></g><g id="Traders_Arena" style="cursor:pointer"><path d="M61.1 468.8h148.7v217.3H61.1z" style="fill:#1a5f5a;stroke:#3c3c3b;stroke-miterlimit:10"/><text class="st2 st13 st8" transform="translate(92.796 616.85)">TRADERS ARENA</text><path d="m167.1 675.6 30.4-11.4.2.6-30.3 11.4zM159.6 674.2h8.7v.6h-8.7zM103.7 675.6l-30.3-11.4-.3.6 30.4 11.4zM102.7 674.2h8.6v.6h-8.6zM111.7 674.6h47.6v3.2h-47.6zM122.2 636.8h26.4v3.2h-26.4zM136.9 645.5h6.5v4.2h-6.5zM127.1 645.5h6.5v4.2h-6.5zM171.6 656.9c0-.6.5-1.1 1.1-1.1h5.4c.6 0 1.1.5 1.1 1.1v6.4c0 .6-.5 1.1-1.1 1.1h-5.4c-.6 0-1.1-.5-1.1-1.1v-6.4zM177.7 664.5v-8.7M173.1 664.5v-8.7" class="st14"/><path d="M173.1 662.5c.7-.2 1.5-.2 2.3-.2.8 0 1.6.1 2.3.2M160.1 656.9c0-.6.5-1.1 1.1-1.1h5.4c.6 0 1.1.5 1.1 1.1v6.4c0 .6-.5 1.1-1.1 1.1h-5.4c-.6 0-1.1-.5-1.1-1.1v-6.4zM166.3 664.5v-8.7M161.6 664.5v-8.7" class="st14"/><path d="M161.6 662.5c.7-.2 1.5-.2 2.3-.2.8 0 1.6.1 2.3.2M148.7 656.9c0-.6.5-1.1 1.1-1.1h5.4c.6 0 1.1.5 1.1 1.1v6.4c0 .6-.5 1.1-1.1 1.1h-5.4c-.6 0-1.1-.5-1.1-1.1v-6.4zM154.8 664.5v-8.7M150.2 664.5v-8.7" class="st14"/><path d="M150.2 662.5c.7-.2 1.5-.2 2.3-.2.8 0 1.6.1 2.3.2M137.2 656.9c0-.6.5-1.1 1.1-1.1h5.4c.6 0 1.1.5 1.1 1.1v6.4c0 .6-.5 1.1-1.1 1.1h-5.4c-.6 0-1.1-.5-1.1-1.1v-6.4zM143.4 664.5v-8.7M138.7 664.5v-8.7" class="st14"/><path d="M138.7 662.5c.7-.2 1.5-.2 2.3-.2.8 0 1.6.1 2.3.2M125.8 656.9c0-.6.5-1.1 1.1-1.1h5.4c.6 0 1.1.5 1.1 1.1v6.4c0 .6-.5 1.1-1.1 1.1h-5.4c-.6 0-1.1-.5-1.1-1.1v-6.4zM131.9 664.5v-8.7M127.3 664.5v-8.7" class="st14"/><path d="M127.3 662.5c.7-.2 1.5-.2 2.3-.2.8 0 1.6.1 2.3.2M114.3 656.9c0-.6.5-1.1 1.1-1.1h5.4c.6 0 1.1.5 1.1 1.1v6.4c0 .6-.5 1.1-1.1 1.1h-5.4c-.6 0-1.1-.5-1.1-1.1v-6.4zM120.5 664.5v-8.7M115.8 664.5v-8.7" class="st14"/><path d="M115.8 662.5c.7-.2 1.5-.2 2.3-.2.8 0 1.6.1 2.3.2M102.9 656.9c0-.6.5-1.1 1.1-1.1h5.4c.6 0 1.1.5 1.1 1.1v6.4c0 .6-.5 1.1-1.1 1.1H104c-.6 0-1.1-.5-1.1-1.1v-6.4zM109.1 664.5v-8.7M104.4 664.5v-8.7" class="st14"/><path d="M104.4 662.5c.7-.2 1.5-.2 2.3-.2.8 0 1.6.1 2.3.2M91.4 656.9c0-.6.5-1.1 1.1-1.1H98c.6 0 1.1.5 1.1 1.1v6.4c0 .6-.5 1.1-1.1 1.1h-5.4c-.6 0-1.1-.5-1.1-1.1v-6.4zM97.6 664.5v-8.7M92.9 664.5v-8.7" class="st14"/><path d="M92.9 662.5c.7-.2 1.5-.2 2.3-.2.8 0 1.6.1 2.3.2M182.6 592.5h-6v-4.3s.5-2 3-2 3 2 3 2v4.3zM172.1 592.5h-6v-4.3s.5-2 3-2 3 2 3 2v4.3zM193 592.5h-6v-4.3s.5-2 3-2 3 2 3 2v4.3zM161.7 592.5h-6v-4.3s.5-2 3-2 3 2 3 2v4.3zM151.3 592.5h-6v-4.3s.5-2 3-2 3 2 3 2v4.3zM122.2 592.5h-6v-4.3s.5-2 3-2 3 2 3 2v4.3zM111.8 592.5h-6v-4.3s.5-2 3-2 3 2 3 2v4.3zM101.4 592.5h-6v-4.3s.5-2 3-2 3 2 3 2v4.3zM91 592.5h-6v-4.3s.5-2 3-2 3 2 3 2v4.3zM182.6 580.3h-6V576s.5-2 3-2 3 2 3 2v4.3zM172.1 580.3h-6V576s.5-2 3-2 3 2 3 2v4.3zM193 580.3h-6V576s.5-2 3-2 3 2 3 2v4.3zM161.7 580.3h-6V576s.5-2 3-2 3 2 3 2v4.3zM151.3 580.3h-6V576s.5-2 3-2 3 2 3 2v4.3zM122.2 580.3h-6V576s.5-2 3-2 3 2 3 2v4.3zM111.8 580.3h-6V576s.5-2 3-2 3 2 3 2v4.3zM101.4 580.3h-6V576s.5-2 3-2 3 2 3 2v4.3zM91 580.3h-6V576s.5-2 3-2 3 2 3 2v4.3zM182.6 567.4h-6V563s.5-2 3-2 3 2 3 2v4.4zM172.1 567.4h-6V563s.5-2 3-2 3 2 3 2v4.4zM193 567.4h-6V563s.5-2 3-2 3 2 3 2v4.4zM161.7 567.4h-6V563s.5-2 3-2 3 2 3 2v4.4zM151.3 567.4h-6V563s.5-2 3-2 3 2 3 2v4.4zM122.2 567.4h-6V563s.5-2 3-2 3 2 3 2v4.4zM111.8 567.4h-6v-4.3s.5-2 3-2 3 2 3 2v4.3zM101.4 567.4h-6V563s.5-2 3-2 3 2 3 2v4.4zM91 567.4h-6v-4.3s.5-2 3-2 3 2 3 2v4.3zM182.6 554.5h-6v-4.3s.5-2 3-2 3 2 3 2v4.3zM172.1 554.5h-6v-4.3s.5-2 3-2 3 2 3 2v4.3zM193 554.5h-6v-4.3s.5-2 3-2 3 2 3 2v4.3zM161.7 554.5h-6v-4.3s.5-2 3-2 3 2 3 2v4.3zM151.3 554.5h-6v-4.3s.5-2 3-2 3 2 3 2v4.3zM122.2 554.5h-6v-4.3s.5-2 3-2 3 2 3 2v4.3zM111.8 554.5h-6v-4.3s.5-2 3-2 3 2 3 2v4.3zM101.4 554.5h-6v-4.3s.5-2 3-2 3 2 3 2v4.3zM91 554.5h-6v-4.3s.5-2 3-2 3 2 3 2v4.3zM182.6 541.6h-6v-4.3s.5-2 3-2 3 2 3 2v4.3zM172.1 541.6h-6v-4.3s.5-2 3-2 3 2 3 2v4.3zM193 541.6h-6v-4.3s.5-2 3-2 3 2 3 2v4.3zM161.7 541.6h-6v-4.3s.5-2 3-2 3 2 3 2v4.3zM151.3 541.6h-6v-4.3s.5-2 3-2 3 2 3 2v4.3zM122.2 541.6h-6v-4.3s.5-2 3-2 3 2 3 2v4.3zM111.8 541.6h-6v-4.3s.5-2 3-2 3 2 3 2v4.3zM101.4 541.6h-6v-4.3s.5-2 3-2 3 2 3 2v4.3zM91 541.6h-6v-4.3s.5-2 3-2 3 2 3 2v4.3zM182.6 528.7h-6v-4.3s.5-2 3-2 3 2 3 2v4.3zM172.1 528.7h-6v-4.3s.5-2 3-2 3 2 3 2v4.3zM193 528.7h-6v-4.3s.5-2 3-2 3 2 3 2v4.3zM161.7 528.7h-6v-4.3s.5-2 3-2 3 2 3 2v4.3zM151.3 528.7h-6v-4.3s.5-2 3-2 3 2 3 2v4.3zM122.2 528.7h-6v-4.3s.5-2 3-2 3 2 3 2v4.3zM111.8 528.7h-6v-4.3s.5-2 3-2 3 2 3 2v4.3zM101.4 528.7h-6v-4.3s.5-2 3-2 3 2 3 2v4.3zM91 528.7h-6v-4.3s.5-2 3-2 3 2 3 2v4.3zM182.6 515.8h-6v-4.3s.5-2 3-2 3 2 3 2v4.3zM172.1 515.8h-6v-4.3s.5-2 3-2 3 2 3 2v4.3zM193 515.8h-6v-4.3s.5-2 3-2 3 2 3 2v4.3zM161.7 515.8h-6v-4.3s.5-2 3-2 3 2 3 2v4.3zM151.3 515.8h-6v-4.3s.5-2 3-2 3 2 3 2v4.3zM122.2 515.8h-6v-4.3s.5-2 3-2 3 2 3 2v4.3zM111.8 515.8h-6v-4.3s.5-2 3-2 3 2 3 2v4.3zM101.4 515.8h-6v-4.3s.5-2 3-2 3 2 3 2v4.3zM91 515.8h-6v-4.3s.5-2 3-2 3 2 3 2v4.3zM182.6 502.9h-6v-4.3s.5-2 3-2 3 2 3 2v4.3zM172.1 502.9h-6v-4.3s.5-2 3-2 3 2 3 2v4.3zM193 502.9h-6v-4.3s.5-2 3-2 3 2 3 2v4.3zM161.7 502.9h-6v-4.3s.5-2 3-2 3 2 3 2v4.3zM151.3 502.9h-6v-4.3s.5-2 3-2 3 2 3 2v4.3zM122.2 502.9h-6v-4.3s.5-2 3-2 3 2 3 2v4.3zM111.8 502.9h-6v-4.3s.5-2 3-2 3 2 3 2v4.3zM101.4 502.9h-6v-4.3s.5-2 3-2 3 2 3 2v4.3zM91 502.9h-6v-4.3s.5-2 3-2 3 2 3 2v4.3zM81.9 592.5h-6v-4.3s.5-2 3-2 3 2 3 2v4.3zM81.9 580.3h-6V576s.5-2 3-2 3 2 3 2v4.3zM81.9 567.4h-6V563s.5-2 3-2 3 2 3 2v4.4zM81.9 554.5h-6v-4.3s.5-2 3-2 3 2 3 2v4.3zM81.9 541.6h-6v-4.3s.5-2 3-2 3 2 3 2v4.3zM81.9 528.7h-6v-4.3s.5-2 3-2 3 2 3 2v4.3zM81.9 515.8h-6v-4.3s.5-2 3-2 3 2 3 2v4.3zM81.9 502.9h-6v-4.3s.5-2 3-2 3 2 3 2v4.3z" class="st14"/></g><g id="Sweet_Station" style="cursor:pointer"><path d="M211.1 508.2h26.6v60.9h-26.6z" class="st10"/><text transform="rotate(-90 385.449 162.876)"><tspan x="0" y="0" class="st6 st7 st8">SWEET</tspan><tspan x="-3.6" y="10.4" class="st6 st7 st8">STATION</tspan></text><path d="M225 567.5c2 0 3.7-2.3 3.9-5.3.6-.2 1.1-.2 1.7-.1.1 1 .7 1.8 1.2 1.8h.1V559h-.1c-.5 0-1 .7-1.2 1.7-.6.1-1.2.1-1.7-.1-.2-3-1.9-5.3-3.9-5.3v12.2zM224.4 567h-.3c-1.9 0-3.4-1.5-3.4-3.4s1.5-3.4 3.4-3.4h.3v-.5h-.3c-2.2 0-3.9 1.8-3.9 3.9 0 2.2 1.7 3.9 3.9 3.9h.3v-.5z" class="st6"/><path d="M220.2 565.4c-.2-.5-.4-1.1-.4-1.7 0-.8.2-1.5.6-2.1l-.1-.2c-.3-.6-.5-1.3-.5-2 0-.6.1-1.1.3-1.6h-.3c-2.2 0-3.9 1.8-3.9 3.9 0 2.2 1.8 3.9 3.9 3.9.2-.2.1-.2.4-.2z" class="st6"/><path d="m218.6 550.8-.6.5c-.1 0-.1.1 0 .2l3.6 4.9c-.1.1-.3.2-.4.4l-2.5-1.2-.2-.1-2.9-1.4c-.1 0-.1 0-.2.1l-.3.7c0 .1 0 .1.1.2l5.5 2.7c-.3.5-.4 1.1-.4 1.7 0 .7.2 1.3.5 1.8.1-.2.2-.3.4-.4-.2-.4-.3-.9-.3-1.4 0-1.9 1.5-3.4 3.4-3.4h.3v-.5h-.3c-.6 0-1.1.1-1.6.4l-1.6-2.1-.1-.2-.9-1.1-.8-1.1-.3-.4c-.2-.3-.3-.3-.4-.3zm0 5.5-1.6-.8.3.1-.1-.6 1.3.6.1.7zm-3.2-1.6.2-.5.4.2.1.6-.7-.3zm5.3 2.6-.8-.4-.1-.6 1.2.6c-.1.1-.2.3-.3.4zm1.1-1.2-.5-.7.2-.6.8 1c-.2.1-.4.2-.5.3zm-1.2-2.4-.2.6-1.4-1.9.6.7.2-.6.8 1.2zm-1.7-2.3-.2.6-.4-.6.4-.3.2.3zM222 565.4c.3 0 .5-.2.5-.5s-.2-.5-.5-.5-.5.2-.5.5.2.5.5.5zM222.2 563.1c.3 0 .5-.2.5-.5s-.2-.5-.5-.5-.5.2-.5.5.3.5.5.5zM223.3 564.4c.3 0 .5-.2.5-.5s-.2-.5-.5-.5-.5.2-.5.5.2.5.5.5zM223.6 566.5c.3 0 .5-.2.5-.5s-.2-.5-.5-.5-.5.2-.5.5.2.5.5.5z" class="st6"/></g><g id="B1" style="cursor:pointer"><path d="M905.3 731h36.5v24.9h-36.5z" class="st17"/><circle cx="923.5" cy="743.4" r="10.5" class="st18" style="fill:#ffb800"/><text class="st7 st8" transform="translate(920.75 746.496)">1</text></g><g id="B2" style="cursor:pointer"><path d="M941.9 731h36.5v24.9h-36.5z" class="st17"/><circle cx="960.2" cy="743.4" r="10.5" class="st18" style="fill:#e02121"/><text class="st7 st8" transform="translate(957.393 746.496)">2</text></g><g id="B3" style="cursor:pointer"><path d="M978.4 731h36.5v24.9h-36.5z" class="st17"/><circle cx="996.6" cy="743.4" r="10.5" class="st18" style="fill:#ffb800"/><text class="st7 st8" transform="translate(993.859 746.496)">3</text></g><g id="B4" style="cursor:pointer"><path d="M1014.9 731h36.5v24.9h-36.5z" class="st17"/><circle cx="1033.1" cy="743.4" r="10.5" class="st18" style="fill:#e02121"/><text class="st7 st8" transform="translate(1030.325 746.496)">4</text></g><g id="B5" style="cursor:pointer"><path d="M1051.3 731h36.5v24.9h-36.5z" class="st17"/><circle cx="1069.6" cy="743.4" r="10.5" class="st18" style="fill:#e02121"/><text class="st7 st8" transform="translate(1066.79 746.496)">5</text></g><g id="B6" style="cursor:pointer"><path d="M1111.197 714.336v-36.5h24.9v36.5z" class="st17"/><circle cx="1123.6" cy="696.1" r="10.5" class="st18" style="fill:#e02121"/><text class="st7 st8" transform="translate(1120.833 699.206)">6</text></g><g id="B7" style="cursor:pointer"><path d="M1111.13 677.602v-36.5h24.9v36.5z" class="st17"/><circle cx="1123.6" cy="659.4" r="10.5" class="st18" style="fill:#e02121"/><text class="st7 st8" transform="translate(1120.833 662.472)">7</text></g><g id="B8" style="cursor:pointer"><path d="M1111.197 641.136v-36.5h24.9v36.5z" class="st17"/><circle cx="1123.6" cy="622.9" r="10.5" class="st18" style="fill:#e02121"/><text class="st7 st8" transform="translate(1120.833 626.006)">8</text></g><g id="B9" style="cursor:pointer"><path d="M1111.163 604.67v-36.5h24.9v36.5z" class="st17"/><circle cx="1123.6" cy="586.5" r="10.5" class="st18" style="fill:#ffb800"/><text class="st7 st8" transform="translate(1120.833 589.54)">9</text></g><g id="B10" style="cursor:pointer"><path d="M1111.129 568.204v-36.5h24.9v36.5z" class="st17"/><circle cx="1123.6" cy="550" r="10.5" class="st18"/><text class="st7 st8" transform="translate(1118.052 553.074)">10</text></g><g id="B11" style="cursor:pointer"><path d="M1111.195 531.738v-36.5h24.9v36.5z" class="st17"/><circle cx="1123.6" cy="513.5" r="10.5" class="st18"/><text class="st7 st8" transform="translate(1118.052 516.608)">11</text></g><g id="B12" style="cursor:pointer"><path d="M1111.161 495.272v-36.5h24.9v36.5z" class="st17"/><circle cx="1123.6" cy="477.1" r="10.5" class="st18" style="fill:#ffb800"/><text class="st7 st8" transform="translate(1118.052 480.142)">12</text></g><g id="B13" style="cursor:pointer"><path d="M1111.127 458.806v-36.5h24.9v36.5z" class="st17"/><circle cx="1123.6" cy="440.6" r="10.5" class="st18" style="fill:#ffb800"/><text class="st7 st8" transform="translate(1118.052 443.675)">13</text></g><g id="B14" style="cursor:pointer"><path d="M985 396.4h36.5v24.9H985z" class="st17"/><circle cx="1003.2" cy="408.9" r="10.5" class="st18" style="fill:#e02121"/><text class="st7 st8" transform="translate(997.635 411.952)">14</text></g><g id="B15" style="cursor:pointer"><path d="M1021.4 396.4h36.5v24.9h-36.5z" class="st17"/><circle cx="1039.7" cy="408.9" r="10.5" class="st18" style="fill:#ffb800"/><text class="st7 st8" transform="translate(1034.1 411.952)">15</text></g><g id="B16" style="cursor:pointer"><path d="M1032.577 494.454v-36.5h24.9v36.5z" class="st17"/><circle cx="1045.1" cy="476.2" r="10.5" class="st18" style="fill:#ffb800"/><text class="st7 st8" transform="translate(1039.501 479.275)">16</text></g><g id="B17" style="cursor:pointer"><path d="M1032.61 530.92v-36.5h24.9v36.5z" class="st17"/><circle cx="1045.1" cy="512.7" r="10.5" class="st18"/><text class="st7 st8" transform="translate(1039.501 515.741)">17</text></g><g id="B18" style="cursor:pointer"><path d="M1032.644 567.386v-36.5h24.9v36.5z" class="st17"/><circle cx="1045.1" cy="549.1" r="10.5" class="st18" style="fill:#e02121"/><text class="st7 st8" transform="translate(1039.501 552.207)">18</text></g><g id="B19" style="cursor:pointer"><path d="M990.634 567.376v-36.5h41.8v36.5z" class="st17"/><circle cx="1012.1" cy="549.1" r="10.5" class="st18" style="fill:#ffb800"/><text class="st7 st8" transform="translate(1006.511 552.207)">19</text></g><g id="B20" style="cursor:pointer"><path d="M990.7 530.91v-36.5h41.8v36.5z" class="st17"/><circle cx="1012.1" cy="512.7" r="10.5" class="st18" style="fill:#e02121"/><text class="st7 st8" transform="translate(1006.511 515.741)">20</text></g><g id="B21" style="cursor:pointer"><path d="M990.667 494.444v-36.5h41.8v36.5z" class="st17"/><circle cx="1012.1" cy="476.2" r="10.5" class="st18" style="fill:#e02121"/><text class="st7 st8" transform="translate(1006.511 479.275)">21</text></g><g id="B22" style="cursor:pointer"><path d="M956.62 359.815v-36.5h24.9v36.5z" class="st17"/><circle cx="969.1" cy="341.3" r="10.5" class="st18" style="fill:#e02121"/><text class="st7 st8" transform="translate(963.503 344.397)">22</text></g><g id="B23" style="cursor:pointer"><path d="M956.586 323.349v-36.5h24.9v36.5z" class="st17"/><circle cx="969.1" cy="305.1" r="10.5" class="st18" style="fill:#e02121"/><text class="st7 st8" transform="translate(963.503 308.168)">23</text></g><g id="B24" style="cursor:pointer"><path d="M956.652 286.883v-36.5h24.9v36.5z" class="st17"/><circle cx="969.1" cy="268.6" r="10.5" class="st18" style="fill:#e02121"/><text class="st7 st8" transform="translate(963.503 271.702)">24</text></g><g id="B25" style="cursor:pointer"><path d="M956.618 250.417v-36.5h24.9v36.5z" class="st17"/><circle cx="969.1" cy="232.1" r="10.5" class="st18"/><text class="st7 st8" transform="translate(963.503 235.236)">25</text></g><g id="B26" style="cursor:pointer"><path d="M839.6 205.2h36.5v24.9h-36.5z" class="st17"/><circle cx="857.8" cy="217.7" r="10.5" class="st18" style="fill:#e02121"/><text class="st7 st8" transform="translate(852.25 220.774)">26</text></g><g id="B27" style="cursor:pointer"><path d="M803.1 205.2h36.5v24.9h-36.5z" class="st17"/><circle cx="821.3" cy="217.7" r="10.5" class="st18" style="fill:#e02121"/><text class="st7 st8" transform="translate(815.784 220.774)">27</text></g><g id="B28" style="cursor:pointer"><path d="M766.6 205.2h36.5v24.9h-36.5z" class="st17"/><circle cx="784.9" cy="217.7" r="10.5" class="st18" style="fill:#e02121"/><text class="st7 st8" transform="translate(779.318 220.774)">28</text></g><g id="B29" style="cursor:pointer"><path d="M730 205.2h36.5v24.9H730z" class="st17"/><circle cx="748.2" cy="217.7" r="10.5" class="st18" style="fill:#e02121"/><text class="st7 st8" transform="translate(742.676 220.774)">29</text></g><g id="B30" style="cursor:pointer"><path d="M591.1 280.2h36.5v24.9h-36.5z" class="st17"/><circle cx="609.4" cy="292.6" r="10.5" class="st18"/><text class="st7 st8" transform="translate(603.79 295.706)">30</text></g><g id="B31" style="cursor:pointer"><path d="M627.8 280.2h36.5v24.9h-36.5z" class="st17"/><circle cx="646" cy="292.6" r="10.5" class="st18" style="fill:#e02121"/><text class="st7 st8" transform="translate(640.433 295.706)">31</text></g><g id="B32" style="cursor:pointer"><path d="M699.3 280.2h36.5v24.9h-36.5z" class="st17"/><circle cx="717.5" cy="292.6" r="10.5" class="st18" style="fill:#ffb800"/><text class="st7 st8" transform="translate(711.928 295.706)">32</text></g><g id="B33" style="cursor:pointer"><path d="M776.9 280.2H812v24.9h-35.1z" class="st17"/><circle cx="793.1" cy="292.6" r="10.5" class="st18" style="fill:#e02121"/><text class="st7 st8" transform="translate(787.587 295.706)">33</text></g><g id="B34" style="cursor:pointer"><path d="M812.2 280.2h35.1v24.9h-35.1z" class="st17"/><circle cx="829.8" cy="292.6" r="10.5" class="st18"/><text class="st7 st8" transform="translate(824.229 295.706)">34</text></g><g id="B35" style="cursor:pointer"><path d="M856.5 382h60.9v49.5h-60.9z" class="st19"/><circle cx="887" cy="406.7" r="10.5" class="st18" style="fill:#e02121"/><text class="st7 st8" transform="translate(881.406 409.798)">35</text><text class="st7 st11" transform="translate(874.962 441.924)">GOLD</text></g><g id="B36" style="cursor:pointer"><path d="M847.6 280.2h35.1v24.9h-35.1z" class="st17"/><circle cx="865.5" cy="292.6" r="10.5" class="st18"/><text class="st7 st8" transform="translate(859.963 295.706)">36</text></g><g id="B37" style="cursor:pointer"><path d="M882.7 280.2h35.1v24.9h-35.1z" class="st17"/><circle cx="901.3" cy="292.6" r="10.5" class="st18"/><text class="st7 st8" transform="translate(895.72 295.706)">37</text></g><g id="B38" style="cursor:pointer"><path d="M764.1 382H825v49.5h-60.9z" class="st19"/><text class="st7 st11" transform="translate(782.497 441.924)">GOLD</text><circle cx="793.1" cy="408.9" r="10.5" class="st18" style="fill:#ffb800"/><text class="st7 st8" transform="translate(787.587 411.952)">38</text></g><g id="B39" style="cursor:pointer"><path d="M672.8 476.6h71.8v60.9h-71.8z" class="st20"/><circle cx="708.7" cy="507.5" r="10.5" class="st18" style="fill:#ffb800"/><text class="st7 st8" transform="translate(703.131 510.622)">39</text><text class="st7 st11" transform="translate(687.443 549.12)">DIAMOND</text></g><g id="B40" style="cursor:pointer"><path d="M918.218 604.602v-36.5h24.9v36.5z" class="st17"/><circle cx="930.7" cy="586.3" r="10.5" class="st18" style="fill:#e02121"/><text class="st7 st8" transform="translate(925.096 589.428)">40</text></g><g id="B41" style="cursor:pointer"><path d="M918.152 641.068v-36.5h24.9v36.5z" class="st17"/><circle cx="930.7" cy="622.8" r="10.5" class="st18" style="fill:#e02121"/><text class="st7 st8" transform="translate(925.096 625.894)">41</text></g><g id="B42" style="cursor:pointer"><path d="M918.186 677.534v-36.5h24.9v36.5z" class="st17"/><circle cx="930.7" cy="659.3" r="10.5" class="st18" style="fill:#e02121"/><text class="st7 st8" transform="translate(925.096 662.36)">42</text></g><g id="B43" style="cursor:pointer"><path d="M893.267 677.515v-36.5h24.9v36.5z" class="st17"/><circle cx="905.7" cy="659.3" r="10.5" class="st18" style="fill:#ffb800"/><text class="st7 st8" transform="translate(900.177 662.36)">43</text></g><g id="B44" style="cursor:pointer"><path d="M893.233 641.05v-36.5h24.9v36.5z" class="st17"/><circle cx="905.7" cy="622.8" r="10.5" class="st18" style="fill:#e02121"/><text class="st7 st8" transform="translate(900.177 625.894)">44</text></g><g id="B45" style="cursor:pointer"><path d="M893.3 604.583v-36.5h24.9v36.5z" class="st17"/><circle cx="905.7" cy="586.3" r="10.5" class="st18" style="fill:#e02121"/><text class="st7 st8" transform="translate(900.177 589.428)">45</text></g><g id="B46" style="cursor:pointer"><path d="M779.6 590H854v86.5h-74.4z" class="st21"/><circle cx="818.1" cy="633.3" r="10.5" class="st18" style="fill:#ffb800"/><text class="st7 st8" transform="translate(812.535 636.35)">46</text><text class="st7 st11" transform="translate(805.592 686.966)">ELITE</text></g><g id="B47" style="cursor:pointer"><path d="M672.1 590h74.4v86.5h-74.4z" class="st21"/><circle cx="710.6" cy="633.3" r="10.5" class="st18" style="fill:#e02121"/><text class="st7 st8" transform="translate(705.06 636.35)">47</text><text class="st7 st11" transform="translate(698.116 686.966)">ELITE</text></g><g id="B48" style="cursor:pointer"><path d="M563.8 590h74.4v86.5h-74.4z" class="st21"/><circle cx="602.3" cy="633.3" r="10.5" class="st18" style="fill:#ffb800"/><text class="st7 st8" transform="translate(596.769 636.35)">48</text><text class="st7 st11" transform="translate(588.826 686.966)">ELITE</text></g><g id="B49" style="cursor:pointer"><path d="M456.3 590h74.4v86.5h-74.4z" class="st21"/><circle cx="494.8" cy="633.3" r="10.5" class="st18" style="fill:#e02121"/><text class="st7 st8" transform="translate(489.256 636.35)">49</text><text class="st7 st11" transform="translate(481.313 686.966)">ELITE</text></g><g id="B50" style="cursor:pointer"><path d="M299.1 731.1h36.5V756h-36.5z" class="st17"/><circle cx="317.4" cy="743.6" r="10.5" class="st18"/><text class="st7 st8" transform="translate(311.795 746.663)">50</text></g><g id="B51" style="cursor:pointer"><path d="M262.5 731.1H299V756h-36.5z" class="st17"/><circle cx="280.7" cy="743.6" r="10.5" class="st18" style="fill:#e02121"/><text class="st7 st8" transform="translate(275.153 746.663)">51</text></g><g id="B52" style="cursor:pointer"><path d="M265.5 625.8h60.9v49.5h-60.9z" class="st19"/><circle cx="295.9" cy="650.6" r="10.5" class="st18"/><text class="st7 st8" transform="translate(290.38 653.657)">52</text><text class="st7 st11" transform="translate(282.936 685.783)">GOLD</text></g><g id="B53" style="cursor:pointer"><path d="M361.1 625.8H422v49.5h-60.9z" class="st19"/><circle cx="391.5" cy="650.6" r="10.5" class="st18"/><text class="st7 st8" transform="translate(385.94 653.657)">53</text><text class="st7 st11" transform="translate(378.496 685.783)">GOLD</text></g><g id="B54" style="cursor:pointer"><path d="M374.7 561.4h36.5v24.9h-36.5z" class="st17"/><circle cx="392.9" cy="573.9" r="10.5" class="st18" style="fill:#e02121"/><text class="st7 st8" transform="translate(387.367 576.966)">54</text></g><g id="B55" style="cursor:pointer"><path d="M338.2 561.4h36.5v24.9h-36.5z" class="st17"/><circle cx="356.5" cy="573.9" r="10.5" class="st18" style="fill:#e02121"/><text class="st7 st8" transform="translate(350.9 576.966)">55</text></g><g id="B56" style="cursor:pointer"><path d="M301.8 561.4h36.5v24.9h-36.5z" class="st17"/><circle cx="320" cy="573.9" r="10.5" class="st18" style="fill:#e02121"/><text class="st7 st8" transform="translate(314.435 576.966)">56</text></g><g id="B57" style="cursor:pointer"><path d="M265.1 561.4h36.5v24.9h-36.5z" class="st17"/><circle cx="283.4" cy="573.9" r="10.5" class="st18" style="fill:#e02121"/><text class="st7 st8" transform="translate(277.793 576.966)">57</text></g><g id="B58" style="cursor:pointer"><path d="M109.3 373.6h71.8v60.9h-71.8z" class="st20"/><circle cx="145.2" cy="404.5" r="10.5" class="st18"/><text class="st7 st8" transform="translate(139.636 407.539)">58</text><text class="st7 st11" transform="translate(123.948 446.037)">DIAMOND</text></g><g id="B59" style="cursor:pointer"><circle cx="278.4" cy="486.8" r="10.5" class="st18"/><text class="st7 st8" transform="translate(272.8 489.911)">59</text><path d="M296.623 499.795h-36.5v-24.8h36.5z" class="st22"/></g><g id="B60" style="cursor:pointer"><path d="M457.6 476.6h71.8v60.9h-71.8z" class="st20"/><circle cx="493.5" cy="507.5" r="10.5" class="st18"/><text class="st7 st8" transform="translate(487.939 510.622)">60</text><text class="st7 st11" transform="translate(472.25 549.12)">DIAMOND</text></g><g id="B61" style="cursor:pointer"><path d="M563.8 464.3h74.4v86.5h-74.4z" class="st21"/><circle cx="601" cy="507.3" r="10.5" class="st18" style="fill:#ffb800"/><text class="st7 st8" transform="translate(595.452 510.396)">61</text><text class="st7 st11" transform="translate(588.508 561.198)">ELITE</text></g><g id="B62" style="cursor:pointer"><circle cx="314.9" cy="486.8" r="10.5" class="st18"/><text class="st7 st8" transform="translate(309.35 489.911)">62</text><path d="M296.7 474.9h36.5v24.8h-36.5z" class="st22"/></g><g id="B63" style="cursor:pointer"><circle cx="351.4" cy="486.8" r="10.5" class="st18"/><text class="st7 st8" transform="translate(345.816 489.911)">63</text><path d="M369.655 499.795h-36.5v-24.8h36.5z" class="st22"/></g><g id="B64" style="cursor:pointer"><circle cx="387.9" cy="486.8" r="10.5" class="st18"/><text class="st7 st8" transform="translate(382.366 489.911)">64</text><path d="M406.156 499.795h-36.5v-24.8h36.5z" class="st22"/></g><g id="B65" style="cursor:pointer"><circle cx="432" cy="404" r="10.5" class="st18"/><text class="st7 st8" transform="translate(426.442 407.085)">65</text><path d="M450.206 416.404h-36.5v-24.8h36.5z" class="st22"/></g><g id="B66" style="cursor:pointer"><circle cx="468.6" cy="404" r="10.5" class="st18"/><text class="st7 st8" transform="translate(462.992 407.085)">66</text><path d="M450.3 391.6h36.5v24.8h-36.5z" class="st22"/></g><g id="B67" style="cursor:pointer"><circle cx="505" cy="404" r="10.5" class="st18"/><text class="st7 st8" transform="translate(499.458 407.085)">67</text><path d="M523.239 416.404h-36.5v-24.8h36.5z" class="st22"/></g><g id="B68" style="cursor:pointer"><circle cx="541.6" cy="404" r="10.5" class="st18" style="fill:#e02121"/><text class="st7 st8" transform="translate(536.008 407.085)">68</text><path d="M559.839 416.404h-36.5v-24.8h36.5z" class="st22"/></g><g id="B69" style="cursor:pointer"><path d="M547 205.2h36.5v24.9H547z" class="st17"/><circle cx="565.2" cy="217.7" r="10.5" class="st18" style="fill:#e02121"/><text class="st7 st8" transform="translate(559.651 220.774)">69</text></g><g id="B70" style="cursor:pointer"><path d="M510.5 205.2H547v24.9h-36.5z" class="st17"/><circle cx="528.7" cy="217.7" r="10.5" class="st18" style="fill:#ffb800"/><text class="st7 st8" transform="translate(523.185 220.774)">70</text></g><g id="B71" style="cursor:pointer"><path d="M474 205.2h36.5v24.9H474z" class="st17"/><circle cx="492.3" cy="217.7" r="10.5" class="st18" style="fill:#ffb800"/><text class="st7 st8" transform="translate(486.72 220.774)">71</text></g><g id="B72" style="cursor:pointer"><path d="M437.4 205.2h36.5v24.9h-36.5z" class="st17"/><circle cx="455.6" cy="217.7" r="10.5" class="st18" style="fill:#e02121"/><text class="st7 st8" transform="translate(450.077 220.774)">72</text></g><g id="B73" style="cursor:pointer"><path d="M328.4 184.4h36.5v42.8h-36.5z" class="st17"/><circle cx="346.6" cy="205.8" r="10.5" class="st18" style="fill:#e02121"/><text class="st7 st8" transform="translate(341.041 208.853)">73</text></g><g id="B74" style="cursor:pointer"><path d="M291.9 184.4h36.5v42.8h-36.5z" class="st17"/><circle cx="310.1" cy="205.8" r="10.5" class="st18" style="fill:#e02121"/><text class="st7 st8" transform="translate(304.575 208.853)">74</text></g><g id="B75" style="cursor:pointer"><path d="M255.1 184.4h36.5v42.8h-36.5z" class="st17"/><circle cx="273.3" cy="205.8" r="10.5" class="st18" style="fill:#e02121"/><text class="st7 st8" transform="translate(267.726 208.853)">75</text></g><g id="B76" style="cursor:pointer"><path d="M218.5 184.4H255v42.8h-36.5z" class="st17"/><circle cx="236.7" cy="205.8" r="10.5" class="st18" style="fill:#e02121"/><text class="st7 st8" transform="translate(231.185 208.853)">76</text></g><g id="B77" style="cursor:pointer"><path d="M182 184.4h36.5v42.8H182z" class="st17"/><circle cx="200.3" cy="205.8" r="10.5" class="st18" style="fill:#e02121"/><text class="st7 st8" transform="translate(194.719 208.853)">77</text></g><g id="B78" style="cursor:pointer"><path d="M145.2 184.4h36.5v42.8h-36.5z" class="st17"/><circle cx="163.4" cy="205.8" r="10.5" class="st18" style="fill:#ffb800"/><text class="st7 st8" transform="translate(157.87 208.853)">78</text></g><g id="B79" style="cursor:pointer"><path d="M108.7 184.4h36.5v42.8h-36.5z" class="st17"/><circle cx="127" cy="205.8" r="10.5" class="st18" style="fill:#e02121"/><text class="st7 st8" transform="translate(121.403 208.853)">79</text></g><g id="B80" style="cursor:pointer"><path d="M663.9 280.2H699v24.9h-35.1z" class="st17"/><circle cx="681.9" cy="292.6" r="10.5" class="st18" style="fill:#e02121"/><text class="st7 st8" transform="translate(676.339 295.706)">80</text></g><g id="B81" style="cursor:pointer"><path d="M782.2 476.6H854v60.9h-71.8z" class="st20"/><circle cx="818.1" cy="507.5" r="10.5" class="st18"/><text class="st7 st8" transform="translate(812.535 510.622)">81</text><text class="st7 st11" transform="translate(796.847 549.12)">DIAMOND</text></g><g id="B82" style="cursor:pointer"><circle cx="905.4" cy="494.2" r="10.5" class="st18"/><text class="st7 st8" transform="translate(899.824 497.277)">82</text><path d="M892.6 481.4h25.6V507h-25.6z" class="st23"/></g><g id="B83" style="cursor:pointer"><circle cx="931.6" cy="494.2" r="10.5" class="st18"/><text class="st7 st8" transform="translate(926.052 497.277)">83</text><path d="M918.2 481.4h25.6V507h-25.6z" class="st23"/></g><g id="B84" style="cursor:pointer"><circle cx="931.6" cy="519.8" r="10.5" class="st18"/><text class="st7 st8" transform="translate(926.052 522.907)">84</text><path d="M918.2 507h25.6v25.6h-25.6z" class="st23"/></g><g id="B85" style="cursor:pointer"><circle cx="905.4" cy="519.8" r="10.5" class="st18"/><text class="st7 st8" transform="translate(899.824 522.907)">85</text><path d="M892.6 507h25.6v25.6h-25.6z" class="st23"/></g><g id="B86" style="cursor:pointer"><circle cx="541.6" cy="276.2" r="10.5" class="st18" style="fill:#ffb800"/><text class="st7 st8" transform="translate(536.008 279.255)">86</text><path d="M559.839 288.543h-36.5v-24.8h36.5z" class="st22"/></g><g id="B87" style="cursor:pointer"><circle cx="505" cy="276.2" r="10.5" class="st18"/><text class="st7 st8" transform="translate(499.458 279.255)">87</text><path d="M523.239 288.543h-36.5v-24.8h36.5z" class="st22"/></g><g id="B88" style="cursor:pointer"><circle cx="468.6" cy="276.2" r="10.5" class="st18"/><text class="st7 st8" transform="translate(462.992 279.255)">88</text><path d="M450.3 263.8h36.5v24.8h-36.5z" class="st22"/></g><g id="B89" style="cursor:pointer"><circle cx="432" cy="276.2" r="10.5" class="st18"/><text class="st7 st8" transform="translate(426.442 279.255)">89</text><path d="M450.206 288.543h-36.5v-24.8h36.5z" class="st22"/></g><g id="B90" style="cursor:pointer"><circle cx="432" cy="311.8" r="10.5" class="st18" style="fill:#e02121"/><text class="st7 st8" transform="translate(426.441 314.93)">90</text><path d="M450.206 331.341h-36.5v-42.8h36.5z" class="st17"/></g><g id="B91" style="cursor:pointer"><circle cx="468.5" cy="311.8" r="10.5" class="st18"/><text class="st7 st8" transform="translate(462.95 314.93)">91</text><path d="M486.806 331.341h-36.5v-42.8h36.5z" class="st17"/></g><g id="B92" style="cursor:pointer"><circle cx="505" cy="311.8" r="10.5" class="st18"/><text class="st7 st8" transform="translate(499.458 314.93)">92</text><path d="M523.239 331.341h-36.5v-42.8h36.5z" class="st17"/></g><g id="B93" style="cursor:pointer"><circle cx="541.6" cy="311.8" r="10.5" class="st18" style="fill:#ffb800"/><text class="st7 st8" transform="translate(536.008 314.93)">93</text><path d="M559.839 331.341h-36.5v-42.8h36.5z" class="st17"/></g><g id="B94" style="cursor:pointer"><circle cx="346.4" cy="404" r="10.5" class="st18"/><text class="st7 st8" transform="translate(340.849 407.085)">94</text><path d="M364.62 416.46h-36.5v-24.8h36.5z" class="st22"/></g><g id="B95" style="cursor:pointer"><circle cx="309.9" cy="404" r="10.5" class="st18"/><text class="st7 st8" transform="translate(304.298 407.085)">95</text><path d="M328.12 416.46h-36.5v-24.8h36.5z" class="st22"/></g><g id="B96" style="cursor:pointer"><circle cx="273.4" cy="404" r="10.5" class="st18"/><text class="st7 st8" transform="translate(267.832 407.085)">96</text><path d="M255.2 391.7h36.5v24.8h-36.5z" class="st22"/></g><g id="B97" style="cursor:pointer"><circle cx="236.8" cy="404" r="10.5" class="st18"/><text class="st7 st8" transform="translate(231.282 407.085)">97</text><path d="M255.087 416.46h-36.5v-24.8h36.5z" class="st22"/></g><g id="B98" style="cursor:pointer"><circle cx="132.5" cy="328.4" r="10.5" class="st18"/><text class="st7 st8" transform="translate(126.924 331.493)">98</text><path d="M119.7 315.6h25.6v25.6h-25.6z" class="st23"/></g><g id="B99" style="cursor:pointer"><circle cx="158.7" cy="328.4" r="10.5" class="st18"/><text class="st7 st8" transform="translate(153.151 331.493)">99</text><path d="M145.3 315.6h25.6v25.6h-25.6z" class="st23"/></g><g id="B100" style="cursor:pointer"><circle cx="132.5" cy="302.8" r="10.5" class="st18"/><text class="st7 st8" transform="translate(124.143 305.863)">100</text><path d="M119.7 290h25.6v25.6h-25.6z" class="st23"/></g><g id="B101" style="cursor:pointer"><circle cx="158.7" cy="302.8" r="10.5" class="st18"/><text class="st7 st8" transform="translate(150.37 305.863)">101</text><path d="M145.3 290h25.6v25.6h-25.6z" class="st23"/></g></svg>