<svg xmlns="http://www.w3.org/2000/svg" width="16" height="16" viewBox="0 0 16 16" fill="none">
  <g clip-path="url(#clip0_1268_9059)">
    <path d="M8 0C10.2091 0 12.209 0.895595 13.6569 2.34315C15.1047 3.79103 16 5.79087 16 8C16 10.2091 15.1044 12.209 13.6569 13.6569C12.209 15.1047 10.2091 16 8 16C5.79087 16 3.79103 15.1044 2.34315 13.6569C0.895595 12.209 0 10.2091 0 8C0 5.79087 0.895595 3.79103 2.34315 2.34315C3.79103 0.895595 5.79087 0 8 0Z" fill="white"/>
    <path d="M0.929035 7.54292H3.09371C3.12973 6.49124 3.28938 5.49311 3.54833 4.58875C3.02525 4.4317 2.54662 4.24706 2.12316 4.04004C1.43978 5.05213 1.01113 6.25047 0.928711 7.54292H0.929035Z" fill="black"/>
    <path d="M4.00879 7.54279H7.54509V5.18601C6.47719 5.1594 5.46413 5.03901 4.55036 4.84432C4.51078 4.83588 4.47119 4.82712 4.43193 4.81836C4.19278 5.64743 4.04416 6.56769 4.00879 7.54279Z" fill="black"/>
    <path d="M8.45508 7.54279H11.9914C11.9557 6.56801 11.8074 5.64743 11.5682 4.81836C11.529 4.82712 11.4894 4.83588 11.4498 4.84432C10.536 5.03901 9.5233 5.1594 8.45508 5.18601V7.54279Z" fill="black"/>
    <path d="M12.9071 7.54292H15.0718C14.9893 6.25047 14.5607 5.05213 13.8773 4.04004C13.4539 4.24706 12.9756 4.4317 12.4521 4.58875C12.7114 5.49279 12.8707 6.49092 12.9068 7.54292H12.9071Z" fill="black"/>
    <path d="M15.0714 8.45703H12.9068C12.8707 9.50871 12.7111 10.5068 12.4521 11.4112C12.9752 11.5683 13.4539 11.7529 13.877 11.9599C14.5604 10.9478 14.989 9.74948 15.0714 8.45703Z" fill="black"/>
    <path d="M11.9914 8.45703H8.45508V10.8138C9.52298 10.8404 10.536 10.9608 11.4498 11.1555C11.4894 11.1639 11.529 11.1727 11.5682 11.1815C11.8074 10.3524 11.956 9.43213 11.9914 8.45703Z" fill="black"/>
    <path d="M7.54509 8.45703H4.00879C4.04448 9.4318 4.19278 10.3524 4.43193 11.1815C4.47119 11.1727 4.51078 11.1643 4.55036 11.1555C5.46413 10.9608 6.47687 10.8404 7.54509 10.8138V8.45703Z" fill="black"/>
    <path d="M3.09339 8.45703H0.928711C1.01113 9.74948 1.43978 10.9478 2.12316 11.9599C2.54662 11.7529 3.02492 11.5683 3.54833 11.4112C3.28938 10.5072 3.12973 9.50903 3.09371 8.45703H3.09339Z" fill="black"/>
    <path d="M8.4554 0.961914V4.27205C9.46132 4.24576 10.4098 4.13349 11.2606 3.9521L11.271 3.94983C11.1198 3.57179 10.9481 3.22005 10.7586 2.89913C10.1395 1.85134 9.33575 1.14525 8.45508 0.962239L8.4554 0.961914Z" fill="black"/>
    <path d="M8.45508 11.7285V15.0386C9.33575 14.8556 10.1395 14.1495 10.7586 13.1018C10.9481 12.7808 11.1198 12.4291 11.271 12.0511L11.2603 12.0488C10.4092 11.8674 9.461 11.7548 8.45508 11.7288V11.7285Z" fill="black"/>
    <path d="M7.5451 15.0386V11.7285C6.53918 11.7548 5.59069 11.8671 4.73988 12.0485L4.72949 12.0507C4.8807 12.4288 5.05236 12.7805 5.24186 13.1014C5.86099 14.1492 6.66476 14.8553 7.54542 15.0383L7.5451 15.0386Z" fill="black"/>
    <path d="M7.54445 4.27205V0.961914C6.66378 1.14493 5.86002 1.85102 5.24089 2.8988C5.05138 3.21972 4.87973 3.57147 4.72852 3.9495L4.7389 3.95177C5.59004 4.13316 6.5382 4.24576 7.54412 4.27172L7.54445 4.27205Z" fill="black"/>
    <path d="M10.918 1.54102C11.1425 1.80937 11.3521 2.10823 11.5449 2.43434C11.7762 2.826 11.9836 3.25822 12.1627 3.72322C12.5787 3.59959 12.9616 3.45843 13.3049 3.30203C13.2098 3.19495 13.1119 3.09078 13.0106 2.98954C12.41 2.38891 11.7019 1.89568 10.918 1.54102Z" fill="black"/>
    <path d="M12.1627 12.2764C11.9836 12.7414 11.7762 13.1736 11.5449 13.5652C11.3521 13.891 11.1425 14.1902 10.918 14.4586C11.7019 14.1039 12.41 13.6107 13.0106 13.01C13.1119 12.9088 13.2098 12.8046 13.3049 12.6976C12.9619 12.5412 12.579 12.4 12.1627 12.2764Z" fill="black"/>
    <path d="M5.08227 14.4586C4.85772 14.1902 4.6481 13.8914 4.45535 13.5652C4.22399 13.1736 4.01664 12.7414 3.83752 12.2764C3.42152 12.4 3.03862 12.5412 2.69531 12.6976C2.79039 12.8046 2.88838 12.9088 2.98963 13.01C3.59026 13.6107 4.2983 14.1039 5.08227 14.4586Z" fill="black"/>
    <path d="M3.83752 3.72322C4.01664 3.25822 4.22399 2.826 4.45535 2.43434C4.6481 2.10823 4.85772 1.80937 5.08227 1.54102C4.2983 1.89568 3.59026 2.38891 2.98963 2.98954C2.88838 3.09078 2.79039 3.19495 2.69531 3.30203C3.03862 3.45843 3.4212 3.59959 3.83752 3.72322Z" fill="black"/>
  </g>
  <defs>
    <clipPath id="clip0_1268_9059">
      <rect width="16" height="16" fill="white"/>
    </clipPath>
  </defs>
</svg>