<svg xmlns="http://www.w3.org/2000/svg" width="10" height="15" viewBox="0 0 10 15" fill="none">
<g clip-path="url(#clip0_1268_9053)">
<path d="M5 0C2.23843 0 0 2.24759 0 5.01991C0 7.22056 3.69253 12.7264 5 15C6.30747 12.7264 10 7.22056 10 5.01991C10 2.24759 7.76132 0 5 0Z" fill="white"/>
<path d="M5.0003 2.21094C3.45513 2.21094 2.20275 3.46856 2.20275 5.01963C2.20275 6.5707 3.45538 7.82832 5.0003 7.82832C6.54522 7.82832 7.79785 6.5707 7.79785 5.01963C7.79785 3.46856 6.54522 2.21094 5.0003 2.21094Z" fill="black"/>
</g>
<defs>
<clipPath id="clip0_1268_9053">
<rect width="10" height="15" fill="white" transform="matrix(-1 0 0 1 10 0)"/>
</clipPath>
</defs>
</svg>