<svg xmlns="http://www.w3.org/2000/svg" width="14" height="14" viewBox="0 0 14 14" fill="none">
<path d="M4.39475 2L4.2985 2.287L3.4515 4.625H3.4375V4.65256L3.02712 5.787L3 5.85525V6.375H3.875V6.00575L4.05263 5.5H5.44737L5.625 6.00575V6.375H6.5V5.85525L6.47244 5.787L6.0625 4.65212V4.625H6.04938L5.20062 2.287L5.10613 2H4.39344H4.39475ZM10.4375 2V10.176L9.30263 9.04112L8.6875 9.65625L10.56 11.5432L10.875 11.8437L11.19 11.5427L13.0625 9.65625L12.4474 9.04112L11.3125 10.1756V2H10.4375ZM4.75 3.5995L5.11925 4.625H4.38075L4.75 3.5995ZM3 7.25V8.125H5.43381L3.1225 10.435L3 10.5724V11.625H6.5V10.75H4.06619L6.37706 8.44L6.49956 8.30262V7.25H3Z" fill="white"/>
</svg>